<svg width="170" height="56" viewBox="0 0 170 56" fill="none" xmlns="http://www.w3.org/2000/svg">
<path d="M14.0893 19.082V22.616C14.0893 24.7693 13.5573 26.4287 12.4933 27.594C11.4546 28.734 9.90927 29.304 7.85727 29.304C5.80527 29.304 4.24727 28.734 3.18327 27.594C2.1446 26.4287 1.62527 24.7693 1.62527 22.616V8.784C1.62527 6.63067 2.1446 4.984 3.18327 3.844C4.24727 2.67867 5.80527 2.096 7.85727 2.096C9.90927 2.096 11.4546 2.67867 12.4933 3.844C13.5573 4.984 14.0893 6.63067 14.0893 8.784V11.368H10.1373V8.518C10.1373 7.55533 9.9346 6.884 9.52927 6.504C9.14927 6.09867 8.62993 5.896 7.97127 5.896C7.3126 5.896 6.7806 6.09867 6.37527 6.504C5.99527 6.884 5.80527 7.55533 5.80527 8.518V22.882C5.80527 23.8447 5.99527 24.516 6.37527 24.896C6.7806 25.276 7.3126 25.466 7.97127 25.466C8.62993 25.466 9.14927 25.276 9.52927 24.896C9.9346 24.516 10.1373 23.8447 10.1373 22.882V19.082H14.0893ZM26.7059 29H22.5259V2.4H35.7119V29H31.4559V6.2H26.7059V29ZM42.9227 13.61H48.6607V17.41H42.9227V25.2H50.1427V29H38.7427V2.4H50.1427V6.2H42.9227V13.61ZM58.8889 2.4C60.9916 2.4 62.5496 2.95733 63.5629 4.072C64.6016 5.18667 65.1209 6.82067 65.1209 8.974V12.432C65.1209 14.5853 64.6016 16.2193 63.5629 17.334C62.5496 18.4487 60.9916 19.006 58.8889 19.006H56.9129V29H52.7329V2.4H58.8889ZM56.9129 6.2V15.206H58.8889C59.5476 15.206 60.0542 15.0287 60.4089 14.674C60.7636 14.3193 60.9409 13.6607 60.9409 12.698V8.708C60.9409 7.74533 60.7636 7.08667 60.4089 6.732C60.0542 6.37733 59.5476 6.2 58.8889 6.2H56.9129ZM71.2371 13.61H76.9751V17.41H71.2371V25.2H78.4571V29H67.0571V2.4H78.4571V6.2H71.2371V13.61ZM85.2273 13.61H90.9653V17.41H85.2273V25.2H92.4473V29H81.0473V2.4H92.4473V6.2H85.2273V13.61ZM103.094 8.936C103.094 7.74533 102.891 6.94733 102.486 6.542C102.106 6.11133 101.586 5.896 100.928 5.896C100.269 5.896 99.7369 6.09867 99.3316 6.504C98.9262 6.884 98.7236 7.55533 98.7236 8.518V10.684H94.8856V8.708C94.8856 6.55467 95.3922 4.92067 96.4056 3.806C97.4442 2.666 98.9896 2.096 101.042 2.096C103.094 2.096 104.639 2.67867 105.678 3.844C106.742 4.984 107.274 6.63067 107.274 8.784V9.468C107.274 12.3053 106.298 14.1293 104.348 14.94C105.412 15.396 106.159 16.1053 106.59 17.068C107.046 18.0053 107.274 19.158 107.274 20.526V22.616C107.274 24.7693 106.742 26.4287 105.678 27.594C104.639 28.734 103.094 29.304 101.042 29.304C98.9896 29.304 97.4316 28.734 96.3676 27.594C95.3289 26.4287 94.8096 24.7693 94.8096 22.616V19.69H98.7616V22.882C98.7616 23.8447 98.9516 24.5287 99.3316 24.934C99.7369 25.314 100.269 25.504 100.928 25.504C101.586 25.504 102.106 25.3013 102.486 24.896C102.891 24.4907 103.094 23.6927 103.094 22.502V20.412C103.094 19.1707 102.878 18.2967 102.448 17.79C102.017 17.2833 101.32 17.03 100.358 17.03H99.3316V13.23H100.586C101.371 13.23 101.979 13.0273 102.41 12.622C102.866 12.2167 103.094 11.482 103.094 10.418V8.936ZM164.816 23.11L164.284 13.496V2.4H168.464V13.496L167.932 23.11H164.816ZM168.388 24.972V29H164.36V24.972H168.388Z" fill="#1A1E19"/>
<path d="M122.188 32.572V29H113.258V32.572H109.192V25.276H110.826C111.181 24.82 111.421 24.326 111.548 23.794C111.7 23.262 111.801 22.6033 111.852 21.818L112.802 2.4H124.506V25.276H126.33V32.572H122.188ZM115.956 21.742C115.905 22.7553 115.779 23.5153 115.576 24.022C115.399 24.5287 115.133 24.9467 114.778 25.276H120.25V6.2H116.716L115.956 21.742ZM132.497 22.882C132.497 23.8447 132.687 24.5287 133.067 24.934C133.472 25.314 134.004 25.504 134.663 25.504C135.321 25.504 135.841 25.314 136.221 24.934C136.626 24.5287 136.829 23.8447 136.829 22.882V8.518C136.829 7.55533 136.626 6.884 136.221 6.504C135.841 6.09867 135.321 5.896 134.663 5.896C134.004 5.896 133.472 6.09867 133.067 6.504C132.687 6.884 132.497 7.55533 132.497 8.518V22.882ZM128.317 8.784C128.317 6.63067 128.861 4.984 129.951 3.844C131.04 2.67867 132.611 2.096 134.663 2.096C136.715 2.096 138.285 2.67867 139.375 3.844C140.464 4.984 141.009 6.63067 141.009 8.784V22.616C141.009 24.7693 140.464 26.4287 139.375 27.594C138.285 28.734 136.715 29.304 134.663 29.304C132.611 29.304 131.04 28.734 129.951 27.594C128.861 26.4287 128.317 24.7693 128.317 22.616V8.784ZM152.579 21.286L155.429 2.4H161.243V29H157.291V9.924L154.403 29H150.451L147.335 10.19V29H143.687V2.4H149.501L152.579 21.286Z" fill="url(#paint0_linear_110_8557)"/>
<path d="M3.23672 50.4775C3.03672 50.5842 2.81672 50.5975 2.57672 50.5175C2.33672 50.4509 2.13005 50.3109 1.95672 50.0975C1.79672 49.8975 1.71005 49.6509 1.69672 49.3575C1.75005 49.2375 1.81672 49.1375 1.89672 49.0575C1.97672 48.9775 2.07005 48.9109 2.17672 48.8575C2.23005 48.8309 2.27672 48.8175 2.31672 48.8175C2.37005 48.8042 2.42339 48.7975 2.47672 48.7975C2.49005 48.7975 2.55672 48.7375 2.67672 48.6175C2.79672 48.4842 2.93005 48.3375 3.07672 48.1775C3.23672 48.0175 3.37005 47.8842 3.47672 47.7775C3.59672 47.6575 3.65005 47.6042 3.63672 47.6175C3.86339 47.3509 4.07005 47.1042 4.25672 46.8775C4.44339 46.6375 4.70339 46.2909 5.03672 45.8375C5.14339 45.6909 5.25672 45.5242 5.37672 45.3375C5.51005 45.1375 5.64339 44.9375 5.77672 44.7375C5.88339 44.5642 5.98339 44.3975 6.07672 44.2375C6.18339 44.0775 6.27672 43.9375 6.35672 43.8175C6.42339 43.7375 6.48339 43.6575 6.53672 43.5775C6.60339 43.4842 6.66339 43.3975 6.71672 43.3175L6.79672 43.0775C6.86339 42.8909 6.93672 42.6775 7.01672 42.4375C7.11005 42.1975 7.19672 41.9642 7.27672 41.7375C7.37005 41.5109 7.44339 41.3109 7.49672 41.1375C7.56339 40.9642 7.61005 40.8509 7.63672 40.7975C7.65005 40.7709 7.67005 40.7242 7.69672 40.6575C7.72339 40.5775 7.76339 40.4909 7.81672 40.3975C7.91005 40.2109 8.01005 39.9909 8.11672 39.7375C8.23672 39.4709 8.35672 39.2042 8.47672 38.9375C8.59672 38.6709 8.70339 38.4375 8.79672 38.2375C8.70339 38.2642 8.60339 38.3042 8.49672 38.3575C8.40339 38.4109 8.29005 38.4709 8.15672 38.5375C7.69005 38.7642 7.29672 38.9309 6.97672 39.0375C6.67005 39.1309 6.42339 39.1709 6.23672 39.1575C6.05005 39.1309 5.91005 39.0575 5.81672 38.9375C5.59005 38.6309 5.53005 38.2975 5.63672 37.9375C5.74339 37.5775 5.94339 37.3442 6.23672 37.2375C6.42339 37.1709 6.61005 37.1042 6.79672 37.0375C6.99672 36.9709 7.19005 36.9042 7.37672 36.8375C7.56339 36.7575 7.75005 36.6842 7.93672 36.6175C8.13672 36.5509 8.33005 36.4842 8.51672 36.4175C8.86339 36.3109 9.18339 36.2109 9.47672 36.1175C9.78339 36.0242 10.0634 35.9309 10.3167 35.8375C10.4234 35.8375 10.5634 35.8309 10.7367 35.8175C10.9234 35.7909 11.1101 35.7642 11.2967 35.7375C11.4834 35.7109 11.6501 35.6842 11.7967 35.6575C11.9567 35.6175 12.0634 35.5909 12.1167 35.5775C12.3967 35.5642 12.6567 35.5909 12.8967 35.6575C13.1367 35.7109 13.3434 35.7975 13.5167 35.9175C13.5834 35.9575 13.6367 35.9975 13.6767 36.0375C13.7301 36.0775 13.7834 36.1242 13.8367 36.1775L14.2567 36.7775C14.3234 36.8975 14.3834 37.0309 14.4367 37.1775C14.4901 37.3109 14.5367 37.4575 14.5767 37.6175C14.6034 37.7109 14.6101 37.8375 14.5967 37.9975C14.5967 38.1442 14.5767 38.3242 14.5367 38.5375C14.4967 38.7509 14.4434 39.0175 14.3767 39.3375C14.3101 39.6575 14.2167 40.0375 14.0967 40.4775C14.0434 40.6775 13.9834 40.8909 13.9167 41.1175C13.8634 41.3309 13.8034 41.5642 13.7367 41.8175C13.6967 41.9909 13.6567 42.1575 13.6167 42.3175C13.5767 42.4642 13.5367 42.6175 13.4967 42.7775C13.4701 42.9242 13.4367 43.0775 13.3967 43.2375C13.3567 43.3975 13.3101 43.5709 13.2567 43.7575C13.2034 44.1442 13.1101 44.5775 12.9767 45.0575C12.8434 45.5242 12.6901 46.0042 12.5167 46.4975C12.3434 46.9909 12.1767 47.4575 12.0167 47.8975C11.8701 48.3242 11.7567 48.6909 11.6767 48.9975C11.6234 49.0909 11.5567 49.2375 11.4767 49.4375C11.4101 49.6242 11.3234 49.7709 11.2167 49.8775C11.0434 50.0375 10.8701 50.1375 10.6967 50.1775C10.5367 50.2309 10.3767 50.2242 10.2167 50.1575C9.96339 50.0509 9.77672 49.9175 9.65672 49.7575C9.53672 49.6109 9.50339 49.4042 9.55672 49.1375C9.58339 49.0975 9.65005 48.9375 9.75672 48.6575C9.87672 48.3642 10.0034 48.0375 10.1367 47.6775C10.2701 47.3042 10.3901 46.9642 10.4967 46.6575C10.6167 46.3509 10.6901 46.1575 10.7167 46.0775C10.7701 45.7575 10.8301 45.4509 10.8967 45.1575C10.9767 44.8642 11.0567 44.6042 11.1367 44.3775C11.2167 44.1375 11.2901 43.9575 11.3567 43.8375C11.4101 43.5975 11.4567 43.3775 11.4967 43.1775C11.5367 42.9642 11.5767 42.7642 11.6167 42.5775C11.6701 42.3109 11.7167 42.0709 11.7567 41.8575C11.8101 41.6442 11.8567 41.4509 11.8967 41.2775C11.9501 41.0909 11.9967 40.9242 12.0367 40.7775L12.3567 39.3575C12.4101 39.1042 12.4634 38.8575 12.5167 38.6175C12.5701 38.3642 12.6234 38.1109 12.6767 37.8575C12.6901 37.8175 12.6967 37.7775 12.6967 37.7375C12.7101 37.6842 12.7234 37.6375 12.7367 37.5975C12.5767 37.5975 12.3434 37.6109 12.0367 37.6375C11.7301 37.6509 11.4501 37.6642 11.1967 37.6775C10.9434 37.6909 10.8034 37.7109 10.7767 37.7375C10.7767 37.7909 10.7434 37.9175 10.6767 38.1175C10.6234 38.2909 10.5434 38.4975 10.4367 38.7375C10.3434 38.9642 10.2434 39.2042 10.1367 39.4575C10.0301 39.6975 9.93005 39.9242 9.83672 40.1375C9.74339 40.3375 9.67005 40.4909 9.61672 40.5975C9.44339 40.9175 9.28339 41.2375 9.13672 41.5575C9.00339 41.8775 8.86339 42.2042 8.71672 42.5375C8.66339 42.7109 8.55005 42.9775 8.37672 43.3375C8.21672 43.6842 8.02339 44.0709 7.79672 44.4975C7.58339 44.9242 7.36339 45.3442 7.13672 45.7575C6.91005 46.1575 6.69672 46.5109 6.49672 46.8175C6.29672 47.1109 6.11005 47.3709 5.93672 47.5975C5.77672 47.8242 5.61005 48.0509 5.43672 48.2775C5.26339 48.4909 5.05005 48.7509 4.79672 49.0575C4.58339 49.3509 4.31672 49.6375 3.99672 49.9175C3.67672 50.2109 3.42339 50.3975 3.23672 50.4775ZM18.7702 49.0575C18.3702 49.2842 17.9435 49.4175 17.4902 49.4575C17.0502 49.4842 16.6368 49.4242 16.2502 49.2775C15.8635 49.1175 15.5502 48.8842 15.3102 48.5775C15.1768 48.4042 15.0502 48.1309 14.9302 47.7575C14.8102 47.3709 14.7902 46.8509 14.8702 46.1975C14.9502 45.5842 15.1368 44.9642 15.4302 44.3375C15.7368 43.7109 16.1102 43.1575 16.5502 42.6775C16.9902 42.1975 17.4702 41.8709 17.9902 41.6975C18.1768 41.6309 18.3635 41.5842 18.5502 41.5575C18.7502 41.5175 19.0102 41.5109 19.3302 41.5375C19.6368 41.5775 19.9102 41.6575 20.1502 41.7775C20.3902 41.8842 20.5635 42.0042 20.6702 42.1375C20.8835 42.3509 21.0235 42.5575 21.0902 42.7575C21.1568 42.9575 21.1835 43.1509 21.1702 43.3375C21.1035 43.7642 20.9102 44.2242 20.5902 44.7175C20.2835 45.2109 19.8502 45.5775 19.2902 45.8175C19.0635 45.9109 18.7968 45.9709 18.4902 45.9975C18.1835 46.0242 17.7635 45.9842 17.2302 45.8775C16.9102 45.8109 16.6968 45.8442 16.5902 45.9775C16.4968 46.1109 16.4568 46.3709 16.4702 46.7575C16.4968 46.9975 16.5502 47.2109 16.6302 47.3975C16.7235 47.5709 16.8902 47.6909 17.1302 47.7575C17.4368 47.8109 17.6568 47.8175 17.7902 47.7775C17.9235 47.7242 18.0902 47.6509 18.2902 47.5575C18.3968 47.4909 18.4968 47.4175 18.5902 47.3375C18.6968 47.2575 18.7968 47.1775 18.8902 47.0975C18.9968 47.0175 19.0835 46.9575 19.1502 46.9175C19.2168 46.8642 19.2835 46.8309 19.3502 46.8175C19.4168 46.8042 19.4835 46.7975 19.5502 46.7975C19.6968 46.8109 19.8368 46.8909 19.9702 47.0375C20.1035 47.1842 20.1902 47.3242 20.2302 47.4575C20.2302 47.5642 20.1635 47.7175 20.0302 47.9175C19.8968 48.1042 19.7168 48.3042 19.4902 48.5175C19.2768 48.7175 19.0368 48.8975 18.7702 49.0575ZM18.5102 44.5975C18.6035 44.5575 18.7368 44.4642 18.9102 44.3175C19.0968 44.1709 19.2635 44.0175 19.4102 43.8575C19.5568 43.6842 19.6302 43.5509 19.6302 43.4575C19.6302 43.3109 19.5302 43.1842 19.3302 43.0775C19.1435 42.9709 18.8968 42.9509 18.5902 43.0175C18.4835 43.0442 18.3568 43.1175 18.2102 43.2375C18.0635 43.3575 17.9168 43.4975 17.7702 43.6575C17.6235 43.8042 17.4968 43.9509 17.3902 44.0975C17.2835 44.2309 17.2102 44.3375 17.1702 44.4175C17.2235 44.4842 17.3302 44.5375 17.4902 44.5775C17.6502 44.6175 17.8235 44.6375 18.0102 44.6375C18.2102 44.6375 18.3768 44.6242 18.5102 44.5975ZM21.1498 48.9975C21.1365 48.8242 21.1565 48.5842 21.2098 48.2775C21.2765 47.9709 21.3498 47.6709 21.4298 47.3775C21.5232 47.0842 21.5965 46.8709 21.6498 46.7375C21.7698 46.3642 21.8898 45.9909 22.0098 45.6175C22.1432 45.2309 22.2698 44.8509 22.3898 44.4775C22.5232 44.1042 22.6432 43.7575 22.7498 43.4375C22.7498 43.4242 22.7498 43.4175 22.7498 43.4175C22.7632 43.4042 22.7698 43.3909 22.7698 43.3775C22.7698 43.3642 22.7698 43.3509 22.7698 43.3375C22.7698 43.3109 22.7698 43.2842 22.7698 43.2575C22.7698 43.2309 22.7698 43.1975 22.7698 43.1575C22.7165 42.8775 22.7432 42.6509 22.8498 42.4775C22.9698 42.3042 23.0432 42.1842 23.0698 42.1175C23.1898 42.0109 23.3232 41.9375 23.4698 41.8975C23.6165 41.8575 23.7832 41.8909 23.9698 41.9975C24.1698 41.9442 24.4498 41.8909 24.8098 41.8375C25.1832 41.7842 25.4565 41.7175 25.6298 41.6375C25.8032 41.6242 25.9498 41.6109 26.0698 41.5975C26.1898 41.5842 26.3098 41.5775 26.4298 41.5775C26.5498 41.5642 26.6965 41.5709 26.8698 41.5975C27.0432 41.5975 27.2298 41.6642 27.4298 41.7975C27.6298 41.9175 27.8232 42.0975 28.0098 42.3375C28.0365 42.5775 28.0165 42.7709 27.9498 42.9175C27.8832 43.0509 27.7432 43.1309 27.5298 43.1575C27.4498 43.1575 27.2832 43.1575 27.0298 43.1575C26.7898 43.1575 26.5365 43.1709 26.2698 43.1975C26.0032 43.2109 25.7832 43.2509 25.6098 43.3175C25.4765 43.3575 25.3432 43.3909 25.2098 43.4175C25.0765 43.4309 24.9498 43.4442 24.8298 43.4575C24.7232 43.4575 24.6232 43.4775 24.5298 43.5175C24.4498 43.6909 24.3832 43.8909 24.3298 44.1175C24.2898 44.3442 24.2365 44.5442 24.1698 44.7175C24.1032 44.9309 24.0365 45.1375 23.9698 45.3375C23.9032 45.5242 23.8365 45.7109 23.7698 45.8975C23.7165 46.0709 23.6632 46.2375 23.6098 46.3975C23.5298 46.6642 23.4498 46.9109 23.3698 47.1375C23.3032 47.3509 23.2365 47.5509 23.1698 47.7375C23.1165 47.9109 23.0632 48.0775 23.0098 48.2375C22.9165 48.5309 22.8365 48.7709 22.7698 48.9575C22.7032 49.1309 22.6498 49.2709 22.6098 49.3775C22.5832 49.4709 22.5498 49.5442 22.5098 49.5975C22.4165 49.6509 22.2965 49.6909 22.1498 49.7175C22.0032 49.7442 21.8632 49.7509 21.7298 49.7375C21.5165 49.7109 21.3698 49.6309 21.2898 49.4975C21.2232 49.3775 21.1765 49.2109 21.1498 48.9975ZM28.4227 49.5175C28.316 49.4909 28.176 49.3909 28.0027 49.2175C27.8293 49.0309 27.6693 48.8242 27.5227 48.5975C27.3893 48.3709 27.3227 48.1842 27.3227 48.0375C27.3893 47.8909 27.476 47.6375 27.5827 47.2775C27.6893 46.9042 27.8227 46.4775 27.9827 45.9975C28.0893 45.8509 28.1693 45.6775 28.2227 45.4775C28.2893 45.2775 28.3493 45.0975 28.4027 44.9375C28.5093 44.7242 28.6293 44.4509 28.7627 44.1175C28.9093 43.7709 29.056 43.4242 29.2027 43.0775C29.3493 42.7175 29.476 42.4175 29.5827 42.1775C29.6493 42.0575 29.716 41.9375 29.7827 41.8175C29.8493 41.6975 29.9093 41.5775 29.9627 41.4575C29.9627 41.3909 29.996 41.3309 30.0627 41.2775C30.1293 41.2109 30.216 41.1642 30.3227 41.1375C30.3893 41.1109 30.4627 41.0909 30.5427 41.0775C30.636 41.0642 30.7293 41.0575 30.8227 41.0575C31.0093 41.0575 31.176 41.1775 31.3227 41.4175C31.4827 41.6442 31.5627 41.8509 31.5627 42.0375C31.5627 42.3175 31.516 42.5509 31.4227 42.7375C31.3427 42.9109 31.2493 43.0642 31.1427 43.1975C31.036 43.3175 30.936 43.4442 30.8427 43.5775C30.7627 43.7109 30.7227 43.8842 30.7227 44.0975C30.7227 44.1509 30.7693 44.1575 30.8627 44.1175C30.956 44.0642 31.0627 44.0042 31.1827 43.9375C31.2893 43.8842 31.4427 43.7775 31.6427 43.6175C31.856 43.4575 32.076 43.2975 32.3027 43.1375C32.5293 42.9642 32.716 42.8575 32.8627 42.8175C33.156 42.6175 33.3893 42.4709 33.5627 42.3775C33.736 42.2709 33.8627 42.2175 33.9427 42.2175C34.0893 42.2175 34.2427 42.3109 34.4027 42.4975C34.5627 42.6709 34.6427 42.8375 34.6427 42.9975C34.6427 43.1309 34.5893 43.2642 34.4827 43.3975C34.3893 43.5175 34.256 43.6509 34.0827 43.7975C33.8027 44.0242 33.476 44.2509 33.1027 44.4775C32.7293 44.6909 32.3893 44.8775 32.0827 45.0375C31.7893 45.1842 31.616 45.2909 31.5627 45.3575C31.5627 45.3709 31.6093 45.4509 31.7027 45.5975C31.8093 45.7309 31.9227 45.8842 32.0427 46.0575C32.1227 46.2042 32.196 46.3509 32.2627 46.4975C32.3427 46.6309 32.4093 46.7575 32.4627 46.8775C32.636 47.2375 32.7827 47.5175 32.9027 47.7175C33.036 47.9042 33.1893 48.0175 33.3627 48.0575C33.536 48.0842 33.7893 48.0509 34.1227 47.9575C34.376 47.8775 34.5693 47.9242 34.7027 48.0975C34.8493 48.2709 34.9227 48.4309 34.9227 48.5775C34.9227 48.6442 34.8827 48.7175 34.8027 48.7975C34.736 48.8775 34.6493 48.9642 34.5427 49.0575C34.3293 49.2309 34.076 49.3842 33.7827 49.5175C33.5027 49.6642 33.2893 49.7375 33.1427 49.7375C32.996 49.7375 32.836 49.6975 32.6627 49.6175C32.4893 49.5375 32.2693 49.3642 32.0027 49.0975C31.736 48.8309 31.3827 48.4109 30.9427 47.8375C30.9427 47.7842 30.9093 47.6975 30.8427 47.5775C30.776 47.4442 30.7093 47.3109 30.6427 47.1775C30.5893 47.0709 30.536 46.9842 30.4827 46.9175C30.4427 46.8375 30.416 46.7909 30.4027 46.7775C30.4027 46.8442 30.3893 46.8309 30.3627 46.7375C30.3493 46.6442 30.316 46.5442 30.2627 46.4375C30.2093 46.3175 30.1293 46.2575 30.0227 46.2575C29.9693 46.2575 29.896 46.3442 29.8027 46.5175C29.7093 46.6775 29.6093 46.8775 29.5027 47.1175C29.436 47.2775 29.3693 47.4509 29.3027 47.6375C29.236 47.8242 29.1827 48.0109 29.1427 48.1975C29.116 48.3709 29.1027 48.5375 29.1027 48.6975C29.1027 48.8975 29.0427 49.0842 28.9227 49.2575C28.816 49.4309 28.6493 49.5175 28.4227 49.5175ZM38.31 49.2975C38.03 49.3509 37.8167 49.3375 37.67 49.2575C37.5367 49.1642 37.3967 49.0509 37.25 48.9175C37.0367 48.8109 36.8433 48.6642 36.67 48.4775C36.4967 48.2775 36.3633 48.0709 36.27 47.8575C36.1767 47.6442 36.1367 47.4775 36.15 47.3575C36.19 46.8909 36.2967 46.3842 36.47 45.8375C36.6567 45.2909 36.89 44.7575 37.17 44.2375C37.4633 43.7175 37.79 43.2575 38.15 42.8575C38.5233 42.4442 38.9233 42.1442 39.35 41.9575C39.6167 41.8509 39.9033 41.8109 40.21 41.8375C40.5167 41.8642 40.7233 41.9909 40.83 42.2175C41.03 42.6042 40.9833 42.8509 40.69 42.9575C40.65 42.9575 40.6033 42.9775 40.55 43.0175C40.4967 43.0442 40.47 43.0842 40.47 43.1375C40.5233 43.1642 40.67 43.1709 40.91 43.1575C41.15 43.1309 41.39 43.0909 41.63 43.0375C41.8833 42.9709 42.05 42.9042 42.13 42.8375C42.21 42.7975 42.27 42.7775 42.31 42.7775C42.35 42.7775 42.45 42.7909 42.61 42.8175C42.8367 42.8842 42.95 42.9642 42.95 43.0575C42.95 43.1109 42.97 43.1975 43.01 43.3175C43.05 43.4242 43.0967 43.4775 43.15 43.4775C43.2433 43.4909 43.2633 43.5842 43.21 43.7575C43.17 43.9309 43.0167 44.1109 42.75 44.2975C42.4967 44.4575 42.3367 44.5642 42.27 44.6175C42.2167 44.6575 42.21 44.7509 42.25 44.8975C42.3567 45.1509 42.35 45.4575 42.23 45.8175C42.11 46.1775 41.91 46.5509 41.63 46.9375C41.35 47.3242 41.0167 47.6909 40.63 48.0375C40.2567 48.3709 39.8633 48.6575 39.45 48.8975C39.05 49.1242 38.67 49.2575 38.31 49.2975ZM38.37 47.6175C38.4233 47.6175 38.5167 47.5909 38.65 47.5375C38.7833 47.4709 38.89 47.4175 38.97 47.3775C39.0233 47.3242 39.09 47.2642 39.17 47.1975C39.2633 47.1175 39.3367 47.0709 39.39 47.0575C39.4433 47.0575 39.4767 47.0375 39.49 46.9975C39.5033 46.9442 39.55 46.8442 39.63 46.6975C39.71 46.5375 39.87 46.3042 40.11 45.9975C40.3767 45.7042 40.55 45.4709 40.63 45.2975C40.71 45.1109 40.7167 44.9109 40.65 44.6975C40.6367 44.6442 40.5967 44.6109 40.53 44.5975C40.4767 44.5842 40.4033 44.5509 40.31 44.4975C40.1767 44.4975 40.0833 44.5309 40.03 44.5975C39.99 44.6509 39.8967 44.6175 39.75 44.4975L39.43 44.0975L39.09 44.4375C38.8767 44.6509 38.6833 44.9175 38.51 45.2375C38.35 45.5575 38.2233 45.8842 38.13 46.2175C38.0367 46.5509 37.9767 46.8442 37.95 47.0975C37.9367 47.2975 37.97 47.4309 38.05 47.4975C38.13 47.5642 38.2367 47.6042 38.37 47.6175ZM53.9248 49.7975C53.6848 49.8242 53.4715 49.7709 53.2848 49.6375C53.0982 49.5042 52.9515 49.3575 52.8448 49.1975C52.7115 48.9842 52.6115 48.7375 52.5448 48.4575C52.4782 48.1642 52.4448 47.8909 52.4448 47.6375C52.4448 47.6242 52.4382 47.6109 52.4248 47.5975C52.4248 47.5842 52.4248 47.5775 52.4248 47.5775C52.4248 47.5642 52.4182 47.5642 52.4048 47.5775C52.2448 47.7509 52.0115 47.9642 51.7048 48.2175C51.4115 48.4575 51.0982 48.6709 50.7648 48.8575C50.4448 49.0309 50.1582 49.1109 49.9048 49.0975C49.7448 49.0842 49.5848 49.0109 49.4248 48.8775C49.2782 48.7309 49.1448 48.5642 49.0248 48.3775C48.9048 48.1909 48.8248 48.0242 48.7848 47.8775C48.7315 47.6642 48.7448 47.3175 48.8248 46.8375C48.9048 46.3442 49.0248 45.7975 49.1848 45.1975C49.3582 44.5842 49.5582 43.9975 49.7848 43.4375C50.0115 42.8642 50.2448 42.3975 50.4848 42.0375C50.7382 41.6642 50.9782 41.4775 51.2048 41.4775C51.4048 41.4775 51.5782 41.5842 51.7248 41.7975C51.8715 41.9975 51.9782 42.1775 52.0448 42.3375C52.1248 42.5375 52.1648 42.6775 52.1648 42.7575C52.1648 42.8242 52.0915 42.9375 51.9448 43.0975C51.8115 43.2309 51.6715 43.4509 51.5248 43.7575C51.3782 44.0509 51.2315 44.3842 51.0848 44.7575C50.9382 45.1175 50.8048 45.4575 50.6848 45.7775C50.5782 46.0975 50.4915 46.3509 50.4248 46.5375C50.3982 46.6842 50.3715 46.7975 50.3448 46.8775C50.3182 46.9575 50.2982 47.0509 50.2848 47.1575C50.3115 47.1575 50.3382 47.1575 50.3648 47.1575C50.4048 47.1442 50.4382 47.1309 50.4648 47.1175C50.7182 47.0242 50.9782 46.8375 51.2448 46.5575C51.5248 46.2775 51.7982 45.9442 52.0648 45.5575C52.3315 45.1575 52.5848 44.7509 52.8248 44.3375C53.0782 43.9109 53.3182 43.5175 53.5448 43.1575C53.7715 42.7842 53.9715 42.4842 54.1448 42.2575C54.3315 42.0175 54.4848 41.8975 54.6048 41.8975C54.7382 41.8842 54.8982 41.9175 55.0848 41.9975C55.2715 42.0642 55.4248 42.1642 55.5448 42.2975C55.6782 42.4175 55.7315 42.5575 55.7048 42.7175C55.6515 43.0242 55.5115 43.4175 55.2848 43.8975C55.0582 44.3642 54.8248 44.8775 54.5848 45.4375C54.3582 45.9975 54.1915 46.5775 54.0848 47.1775C54.0315 47.4842 54.0515 47.7575 54.1448 47.9975C54.2382 48.2242 54.3782 48.4509 54.5648 48.6775C54.7782 48.9309 54.7915 49.1775 54.6048 49.4175C54.4315 49.6442 54.2048 49.7709 53.9248 49.7975ZM62.2202 49.6375C61.9402 49.5709 61.7402 49.4642 61.6202 49.3175C61.5135 49.1709 61.3668 48.9975 61.1802 48.7975C61.1935 48.5842 61.2335 48.3042 61.3002 47.9575C61.3668 47.6109 61.4535 47.2709 61.5602 46.9375C61.6668 46.6042 61.7735 46.3509 61.8802 46.1775C61.9068 45.8842 61.9935 45.5775 62.1402 45.2575C62.2868 44.9242 62.3935 44.5909 62.4602 44.2575C62.5268 43.9909 62.6002 43.7442 62.6802 43.5175C62.7602 43.2775 62.8268 43.0442 62.8802 42.8175C62.9068 42.7375 62.9135 42.6642 62.9002 42.5975C62.9002 42.5175 62.9268 42.4375 62.9802 42.3575C63.0602 42.2509 63.1468 42.1575 63.2402 42.0775C63.3335 41.9842 63.4268 41.9042 63.5202 41.8375C63.6668 41.8509 63.7868 41.8642 63.8802 41.8775C63.9868 41.8909 64.1135 41.8909 64.2602 41.8775C64.3802 41.8642 64.5735 41.8642 64.8402 41.8775C65.1202 41.8909 65.3935 41.9109 65.6602 41.9375C65.9402 41.9642 66.1335 41.9975 66.2402 42.0375C66.3602 42.0509 66.4468 42.0709 66.5002 42.0975C66.5535 42.1109 66.6202 42.1175 66.7002 42.1175C67.1135 42.3042 67.4468 42.5375 67.7002 42.8175C67.9668 43.0975 68.0668 43.4842 68.0002 43.9775C67.9602 44.1909 67.9402 44.4042 67.9402 44.6175C67.9402 44.8175 67.8868 45.0242 67.7802 45.2375C67.7802 45.2909 67.7402 45.4309 67.6602 45.6575C67.5935 45.8709 67.5135 46.1109 67.4202 46.3775C67.3402 46.6442 67.2602 46.8775 67.1802 47.0775C67.1535 47.1709 67.1268 47.2509 67.1002 47.3175C67.0735 47.3842 67.0535 47.4309 67.0402 47.4575C67.0402 47.3509 67.0268 47.3509 67.0002 47.4575C66.9868 47.5642 66.9668 47.7042 66.9402 47.8775C66.9135 48.0509 66.8802 48.1842 66.8402 48.2775C66.7735 48.4909 66.6535 48.6975 66.4802 48.8975C66.3068 49.0842 66.0868 49.0909 65.8202 48.9175C65.7935 48.8909 65.7668 48.8709 65.7402 48.8575C65.7135 48.8309 65.6868 48.8109 65.6602 48.7975C65.4202 48.5975 65.2802 48.3842 65.2402 48.1575C65.2135 47.9175 65.2268 47.6709 65.2802 47.4175C65.3468 47.1642 65.3868 46.8975 65.4002 46.6175C65.4402 46.5775 65.5068 46.4375 65.6002 46.1975C65.6935 45.9442 65.7868 45.6642 65.8802 45.3575C65.9868 45.0375 66.0802 44.7442 66.1602 44.4775C66.2535 44.2109 66.3068 44.0375 66.3202 43.9575C66.3202 43.9442 66.3135 43.9375 66.3002 43.9375C66.3002 43.9242 66.3002 43.9109 66.3002 43.8975C65.9935 43.8975 65.7002 43.8842 65.4202 43.8575C65.1402 43.8175 64.8402 43.8309 64.5202 43.8975C64.5068 43.9109 64.5002 43.9309 64.5002 43.9575C64.5002 43.9842 64.4935 44.0109 64.4802 44.0375C64.4002 44.3309 64.3068 44.6175 64.2002 44.8975C64.0935 45.1642 64.0068 45.4509 63.9402 45.7575C63.8335 46.1975 63.6802 46.6175 63.4802 47.0175C63.2802 47.4175 63.1668 47.8509 63.1402 48.3175C63.0468 48.4775 62.9868 48.6509 62.9602 48.8375C62.9335 49.0109 62.8802 49.1709 62.8002 49.3175C62.7202 49.4509 62.5535 49.5375 62.3002 49.5775C62.2868 49.5909 62.2735 49.5975 62.2602 49.5975C62.2468 49.6109 62.2335 49.6242 62.2202 49.6375ZM68.6809 54.1175C68.6276 54.1175 68.5476 54.1175 68.4409 54.1175C68.3476 54.1309 68.2676 54.0775 68.2009 53.9575C68.1476 53.8909 68.0676 53.7575 67.9609 53.5575C67.8543 53.3709 67.8343 53.1042 67.9009 52.7575C67.9676 52.5309 68.0209 52.3042 68.0609 52.0775C68.1009 51.8642 68.1209 51.7042 68.1209 51.5975C68.1209 51.5442 68.1343 51.4375 68.1609 51.2775C68.2009 51.1309 68.2209 51.0242 68.2209 50.9575C68.2876 50.8509 68.3409 50.7042 68.3809 50.5175C68.4209 50.3309 68.4409 50.1642 68.4409 50.0175C68.4409 49.8575 68.5209 49.7109 68.6809 49.5775C68.6809 49.4709 68.7009 49.3375 68.7409 49.1775C68.7943 49.0175 68.8209 48.9109 68.8209 48.8575C68.8609 48.6709 68.9476 48.3442 69.0809 47.8775C69.2276 47.3975 69.4009 46.8575 69.6009 46.2575C69.8143 45.6575 70.0209 45.0709 70.2209 44.4975C70.4209 43.9242 70.6009 43.4375 70.7609 43.0375C70.9209 42.6642 71.0543 42.3175 71.1609 41.9975C71.2676 41.6775 71.3209 41.4509 71.3209 41.3175C71.3209 41.2642 71.3343 41.2242 71.3609 41.1975C71.3876 41.1575 71.4476 41.0842 71.5409 40.9775C71.6743 40.8442 71.8476 40.7975 72.0609 40.8375C72.2876 40.8642 72.4743 40.9309 72.6209 41.0375C72.7276 41.2109 72.8009 41.3709 72.8409 41.5175C72.8943 41.6509 72.8943 41.8642 72.8409 42.1575C72.8409 42.3575 72.7943 42.5442 72.7009 42.7175C72.6076 42.8775 72.5209 43.0109 72.4409 43.1175C72.3743 43.2109 72.3543 43.2509 72.3809 43.2375C72.9676 42.8775 73.4943 42.6842 73.9609 42.6575C74.4409 42.6175 74.8409 42.6975 75.1609 42.8975C75.4943 43.0842 75.7476 43.3442 75.9209 43.6775C76.0943 44.0109 76.1809 44.3709 76.1809 44.7575C76.1809 44.9175 76.1276 45.1309 76.0209 45.3975C75.9143 45.6642 75.7943 45.9175 75.6609 46.1575C75.5276 46.3842 75.4209 46.5375 75.3409 46.6175C75.2876 46.6175 75.2343 46.6642 75.1809 46.7575C75.1276 46.8375 75.0743 46.9309 75.0209 47.0375C74.9143 47.1709 74.7343 47.3242 74.4809 47.4975C74.2409 47.6575 73.9943 47.7909 73.7409 47.8975C73.4876 47.9909 73.3076 48.0175 73.2009 47.9775C73.2009 47.9775 73.1809 47.9909 73.1409 48.0175C73.1143 48.0442 73.1009 48.0909 73.1009 48.1575C73.1009 48.1842 73.0076 48.2375 72.8209 48.3175C72.6343 48.3975 72.4143 48.4709 72.1609 48.5375C71.9076 48.6042 71.6743 48.6375 71.4609 48.6375C71.1809 48.6375 70.9809 48.5842 70.8609 48.4775C70.8343 48.5042 70.8009 48.5442 70.7609 48.5975C70.7343 48.6509 70.7209 48.6975 70.7209 48.7375C70.7209 48.8175 70.6876 48.9442 70.6209 49.1175C70.5676 49.2909 70.5009 49.4442 70.4209 49.5775C70.3409 49.7242 70.2676 49.7975 70.2009 49.7975C70.2009 49.7975 70.1876 49.8175 70.1609 49.8575C70.1343 49.8975 70.1476 49.9509 70.2009 50.0175C70.2009 50.0175 70.1943 50.0909 70.1809 50.2375C70.1809 50.3975 70.1476 50.5309 70.0809 50.6375C70.0809 50.7442 70.0609 50.9042 70.0209 51.1175C69.9809 51.3309 69.9343 51.4909 69.8809 51.5975C69.8809 51.7575 69.8543 51.9109 69.8009 52.0575C69.7609 52.2175 69.7143 52.2975 69.6609 52.2975C69.6076 52.3109 69.5743 52.3909 69.5609 52.5375C69.5476 52.6975 69.5409 52.8109 69.5409 52.8775C69.5276 53.2109 69.4209 53.4975 69.2209 53.7375C69.0209 53.9909 68.8409 54.1175 68.6809 54.1175ZM71.2409 47.1175C71.3476 47.1175 71.5409 47.0709 71.8209 46.9775C72.1009 46.8842 72.3943 46.7709 72.7009 46.6375C73.0076 46.4909 73.2476 46.3442 73.4209 46.1975C73.7676 45.8909 74.0343 45.5909 74.2209 45.2975C74.4209 45.0042 74.4076 44.6775 74.1809 44.3175C74.0743 44.1309 73.9009 44.0575 73.6609 44.0975C73.4343 44.1242 73.1809 44.2309 72.9009 44.4175C72.6209 44.6042 72.3343 44.8375 72.0409 45.1175C71.8809 45.2909 71.7343 45.4909 71.6009 45.7175C71.4676 45.9442 71.3543 46.1642 71.2609 46.3775C71.1809 46.5909 71.1343 46.7709 71.1209 46.9175C71.1076 47.0509 71.1476 47.1175 71.2409 47.1175ZM78.3795 49.3175C78.2062 49.3175 78.0662 49.2842 77.9595 49.2175C77.8662 49.1509 77.7462 49.0575 77.5995 48.9375C77.3462 48.6709 77.1395 48.3842 76.9795 48.0775C76.8329 47.7709 76.7795 47.5042 76.8195 47.2775C76.8595 47.1709 76.8729 47.0709 76.8595 46.9775C76.8595 46.8709 76.8595 46.8175 76.8595 46.8175C76.7929 46.7509 76.7729 46.7109 76.7995 46.6975C76.8262 46.6709 76.8529 46.6309 76.8795 46.5775C76.9595 46.5775 76.9862 46.5042 76.9595 46.3575C76.9329 46.2509 76.9729 46.0242 77.0795 45.6775C77.1995 45.3175 77.3595 44.9775 77.5595 44.6575C77.6395 44.5242 77.7595 44.3509 77.9195 44.1375C78.0795 43.9109 78.2529 43.6909 78.4395 43.4775C78.6395 43.2509 78.8195 43.0709 78.9795 42.9375C79.3129 42.6575 79.6195 42.4309 79.8995 42.2575C80.1929 42.0842 80.4862 41.9642 80.7795 41.8975C81.0729 41.8309 81.3729 41.7975 81.6795 41.7975C81.9995 41.7975 82.2595 41.9042 82.4595 42.1175C82.7662 42.2509 82.9795 42.4309 83.0995 42.6575C83.2329 42.8842 83.3195 43.1775 83.3595 43.5375C83.3995 43.9375 83.3595 44.4309 83.2395 45.0175C83.1195 45.5909 82.7929 46.2575 82.2595 47.0175C81.9262 47.4975 81.5995 47.8709 81.2795 48.1375C80.9595 48.4042 80.6062 48.6509 80.2195 48.8775C79.9395 49.0642 79.6395 49.1775 79.3195 49.2175C78.9995 49.2575 78.6862 49.2909 78.3795 49.3175ZM80.4195 46.8775C80.7129 46.6242 80.9195 46.3442 81.0395 46.0375C81.1729 45.7309 81.3129 45.3709 81.4595 44.9575C81.5129 44.8775 81.5462 44.7442 81.5595 44.5575C81.5862 44.3709 81.5929 44.1909 81.5795 44.0175C81.5662 43.8309 81.5195 43.7242 81.4395 43.6975C81.3195 43.6042 81.1995 43.5842 81.0795 43.6375C80.9595 43.6775 80.8062 43.7642 80.6195 43.8975C80.2195 44.2309 79.8462 44.6175 79.4995 45.0575C79.1662 45.4842 78.9329 46.0109 78.7995 46.6375C78.7595 46.9709 78.7929 47.2242 78.8995 47.3975C79.0195 47.5575 79.2062 47.6042 79.4595 47.5375C79.7262 47.4575 80.0462 47.2375 80.4195 46.8775ZM86.4856 49.2975C86.1923 49.2975 85.9723 49.2842 85.8256 49.2575C85.6923 49.2309 85.5923 49.1909 85.5256 49.1375C85.459 49.0842 85.3723 49.0109 85.2656 48.9175C85.2123 48.8109 85.119 48.6775 84.9856 48.5175C84.8523 48.3442 84.759 48.2309 84.7056 48.1775C84.6523 47.9775 84.6323 47.7042 84.6456 47.3575C84.6723 47.0109 84.7323 46.6375 84.8256 46.2375C84.919 45.8375 85.0323 45.4775 85.1656 45.1575C85.219 45.0509 85.2656 44.9442 85.3056 44.8375C85.3456 44.7309 85.3656 44.6775 85.3656 44.6775C85.3656 44.6109 85.4456 44.4509 85.6056 44.1975C85.779 43.9442 85.9656 43.6775 86.1656 43.3975C86.379 43.1175 86.5523 42.9175 86.6856 42.7975C86.779 42.6909 86.919 42.5775 87.1056 42.4575C87.3056 42.3375 87.479 42.2509 87.6256 42.1975C87.7723 42.1442 87.9723 42.0775 88.2256 41.9975C88.479 41.9042 88.7056 41.8575 88.9056 41.8575C89.0923 41.8575 89.2923 41.8975 89.5056 41.9775C89.719 42.0575 89.899 42.1975 90.0456 42.3975C90.2856 42.6375 90.439 42.9242 90.5056 43.2575C90.5723 43.5909 90.579 43.8775 90.5256 44.1175C90.459 44.3842 90.3256 44.6042 90.1256 44.7775C89.9256 44.9375 89.7123 45.0242 89.4856 45.0375C89.259 45.0375 89.059 44.9442 88.8856 44.7575C88.8323 44.6509 88.8056 44.5642 88.8056 44.4975C88.8056 44.4175 88.8323 44.3042 88.8856 44.1575C88.939 43.9709 88.9656 43.8042 88.9656 43.6575C88.9656 43.5109 88.9056 43.4375 88.7856 43.4375C88.6123 43.4375 88.4723 43.4909 88.3656 43.5975C88.259 43.6909 88.099 43.8509 87.8856 44.0775C87.7923 44.1842 87.6723 44.3375 87.5256 44.5375C87.379 44.7375 87.2323 44.9575 87.0856 45.1975C86.9523 45.4242 86.8323 45.6575 86.7256 45.8975C86.579 46.3375 86.4856 46.6242 86.4456 46.7575C86.419 46.8775 86.4056 46.9375 86.4056 46.9375C86.4056 46.9909 86.399 47.0442 86.3856 47.0975C86.3723 47.1375 86.3656 47.1842 86.3656 47.2375C86.3656 47.3975 86.459 47.5242 86.6456 47.6175C86.7923 47.7109 86.9123 47.7575 87.0056 47.7575C87.1123 47.7442 87.3123 47.6709 87.6056 47.5375C87.819 47.4309 88.019 47.2909 88.2056 47.1175C88.4056 46.9442 88.6123 46.7909 88.8256 46.6575C88.9723 46.5642 89.0856 46.4842 89.1656 46.4175C89.259 46.3509 89.3056 46.3442 89.3056 46.3975C89.3056 46.4509 89.3256 46.4775 89.3656 46.4775C89.4056 46.4775 89.4523 46.4509 89.5056 46.3975C89.5856 46.2909 89.6856 46.2509 89.8056 46.2775C89.9256 46.2909 90.0323 46.3242 90.1256 46.3775C90.2323 46.4309 90.2856 46.4775 90.2856 46.5175C90.259 46.6375 90.2856 46.7375 90.3656 46.8175C90.3656 46.8709 90.3456 46.9442 90.3056 47.0375C90.279 47.1175 90.239 47.1842 90.1856 47.2375C90.119 47.3309 90.019 47.4642 89.8856 47.6375C89.7656 47.8109 89.6523 47.9642 89.5456 48.0975C89.439 48.2309 89.3856 48.2975 89.3856 48.2975C89.3323 48.2842 89.279 48.2975 89.2256 48.3375C89.1856 48.3775 89.139 48.4242 89.0856 48.4775C88.979 48.5709 88.879 48.6442 88.7856 48.6975C88.6923 48.7375 88.619 48.7575 88.5656 48.7575C88.4723 48.8109 88.399 48.8442 88.3456 48.8575C88.3056 48.8709 88.2856 48.9042 88.2856 48.9575C88.1523 49.0909 87.9123 49.1842 87.5656 49.2375C87.219 49.2775 86.859 49.2975 86.4856 49.2975ZM93.2609 48.7975C93.0076 48.6909 92.8009 48.5309 92.6409 48.3175C92.4943 48.0909 92.4209 47.8175 92.4209 47.4975C92.4209 47.3642 92.4476 47.1375 92.5009 46.8175C92.5543 46.4975 92.6276 46.1375 92.7209 45.7375C92.8143 45.3375 92.9076 44.9642 93.0009 44.6175C93.1343 44.3775 93.2209 44.1375 93.2609 43.8975C93.3143 43.6575 93.3409 43.5109 93.3409 43.4575C93.3676 43.2975 93.4143 43.0842 93.4809 42.8175C93.5476 42.5509 93.6143 42.3109 93.6809 42.0975C93.7609 41.8709 93.8143 41.7442 93.8409 41.7175C93.9076 41.6509 94.0209 41.6109 94.1809 41.5975C94.3409 41.5842 94.5009 41.6042 94.6609 41.6575C94.8209 41.6975 94.9276 41.7842 94.9809 41.9175C95.1276 42.0775 95.2076 42.3175 95.2209 42.6375C95.2476 42.9575 95.1876 43.3309 95.0409 43.7575C94.9209 44.0242 94.8009 44.3375 94.6809 44.6975C94.5609 45.0575 94.4543 45.3909 94.3609 45.6975C94.2809 45.9909 94.2343 46.1909 94.2209 46.2975L93.5009 46.2775C93.7276 46.0642 93.9409 45.8442 94.1409 45.6175C94.3409 45.3775 94.4876 45.1909 94.5809 45.0575C94.8076 44.7509 95.0009 44.4975 95.1609 44.2975C95.3343 44.0842 95.5543 43.8309 95.8209 43.5375C96.0876 43.2309 96.3743 43.0175 96.6809 42.8975C96.9876 42.7642 97.2143 42.6975 97.3609 42.6975C97.6543 42.7509 97.9143 42.9042 98.1409 43.1575C98.3809 43.3975 98.5276 43.7575 98.5809 44.2375C98.5809 44.4242 98.5609 44.6442 98.5209 44.8975C98.4943 45.1509 98.4809 45.2775 98.4809 45.2775C98.4809 45.2775 98.5876 45.1442 98.8009 44.8775C99.0276 44.6109 99.3276 44.3109 99.7009 43.9775C99.9543 43.7909 100.201 43.6842 100.441 43.6575C100.681 43.6175 100.894 43.6975 101.081 43.8975C101.428 44.0842 101.681 44.4109 101.841 44.8775C102.001 45.3442 102.054 45.8709 102.001 46.4575C101.961 46.8042 101.961 47.0842 102.001 47.2975C102.054 47.4975 102.108 47.6775 102.161 47.8375C102.334 48.0775 102.361 48.2909 102.241 48.4775C102.121 48.6509 102.014 48.7375 101.921 48.7375C101.788 48.7375 101.588 48.7109 101.321 48.6575C101.054 48.6042 100.808 48.5109 100.581 48.3775C100.368 48.2442 100.261 48.0642 100.261 47.8375V46.5975C100.261 46.3042 100.248 46.0909 100.221 45.9575C100.208 45.8109 100.174 45.7175 100.121 45.6775C99.9743 45.5975 99.7943 45.6575 99.5809 45.8575C99.3676 46.0575 99.1343 46.3442 98.8809 46.7175C98.6409 47.0775 98.3809 47.4842 98.1009 47.9375C97.8476 48.3509 97.6409 48.6042 97.4809 48.6975C97.3209 48.7775 97.1676 48.7709 97.0209 48.6775C96.7276 48.5842 96.5409 48.4575 96.4609 48.2975C96.3943 48.1242 96.3876 47.9309 96.4409 47.7175C96.5076 47.4909 96.5876 47.1975 96.6809 46.8375C96.7876 46.4775 96.8876 46.1309 96.9809 45.7975C97.0743 45.4509 97.1343 45.1975 97.1609 45.0375C97.1076 44.9309 97.0143 44.8975 96.8809 44.9375C96.7609 44.9642 96.6343 45.0242 96.5009 45.1175C96.3409 45.2242 96.1676 45.3375 95.9809 45.4575C95.8076 45.5775 95.6009 45.8309 95.3609 46.2175C95.2009 46.4709 95.0209 46.7509 94.8209 47.0575C94.6209 47.3509 94.4343 47.6175 94.2609 47.8575C94.1009 48.0975 93.9676 48.2642 93.8609 48.3575C93.7676 48.5975 93.6809 48.7509 93.6009 48.8175C93.5209 48.8709 93.4076 48.8642 93.2609 48.7975ZM106.689 49.2975C106.409 49.3509 106.196 49.3375 106.049 49.2575C105.916 49.1642 105.776 49.0509 105.629 48.9175C105.416 48.8109 105.222 48.6642 105.049 48.4775C104.876 48.2775 104.742 48.0709 104.649 47.8575C104.556 47.6442 104.516 47.4775 104.529 47.3575C104.569 46.8909 104.676 46.3842 104.849 45.8375C105.036 45.2909 105.269 44.7575 105.549 44.2375C105.842 43.7175 106.169 43.2575 106.529 42.8575C106.902 42.4442 107.302 42.1442 107.729 41.9575C107.996 41.8509 108.282 41.8109 108.589 41.8375C108.896 41.8642 109.102 41.9909 109.209 42.2175C109.409 42.6042 109.362 42.8509 109.069 42.9575C109.029 42.9575 108.982 42.9775 108.929 43.0175C108.876 43.0442 108.849 43.0842 108.849 43.1375C108.902 43.1642 109.049 43.1709 109.289 43.1575C109.529 43.1309 109.769 43.0909 110.009 43.0375C110.262 42.9709 110.429 42.9042 110.509 42.8375C110.589 42.7975 110.649 42.7775 110.689 42.7775C110.729 42.7775 110.829 42.7909 110.989 42.8175C111.216 42.8842 111.329 42.9642 111.329 43.0575C111.329 43.1109 111.349 43.1975 111.389 43.3175C111.429 43.4242 111.476 43.4775 111.529 43.4775C111.622 43.4909 111.642 43.5842 111.589 43.7575C111.549 43.9309 111.396 44.1109 111.129 44.2975C110.876 44.4575 110.716 44.5642 110.649 44.6175C110.596 44.6575 110.589 44.7509 110.629 44.8975C110.736 45.1509 110.729 45.4575 110.609 45.8175C110.489 46.1775 110.289 46.5509 110.009 46.9375C109.729 47.3242 109.396 47.6909 109.009 48.0375C108.636 48.3709 108.242 48.6575 107.829 48.8975C107.429 49.1242 107.049 49.2575 106.689 49.2975ZM106.749 47.6175C106.802 47.6175 106.896 47.5909 107.029 47.5375C107.162 47.4709 107.269 47.4175 107.349 47.3775C107.402 47.3242 107.469 47.2642 107.549 47.1975C107.642 47.1175 107.716 47.0709 107.769 47.0575C107.822 47.0575 107.856 47.0375 107.869 46.9975C107.882 46.9442 107.929 46.8442 108.009 46.6975C108.089 46.5375 108.249 46.3042 108.489 45.9975C108.756 45.7042 108.929 45.4709 109.009 45.2975C109.089 45.1109 109.096 44.9109 109.029 44.6975C109.016 44.6442 108.976 44.6109 108.909 44.5975C108.856 44.5842 108.782 44.5509 108.689 44.4975C108.556 44.4975 108.462 44.5309 108.409 44.5975C108.369 44.6509 108.276 44.6175 108.129 44.4975L107.809 44.0975L107.469 44.4375C107.256 44.6509 107.062 44.9175 106.889 45.2375C106.729 45.5575 106.602 45.8842 106.509 46.2175C106.416 46.5509 106.356 46.8442 106.329 47.0975C106.316 47.2975 106.349 47.4309 106.429 47.4975C106.509 47.5642 106.616 47.6042 106.749 47.6175Z" fill="url(#paint1_linear_110_8557)"/>
<defs>
<linearGradient id="paint0_linear_110_8557" x1="8.0986" y1="-2.58268" x2="48.8231" y2="91.5499" gradientUnits="userSpaceOnUse">
<stop stop-color="#7BCA4A"/>
<stop offset="1" stop-color="#67B338"/>
</linearGradient>
<linearGradient id="paint1_linear_110_8557" x1="5.24027" y1="28.7584" x2="32.3371" y2="90.3597" gradientUnits="userSpaceOnUse">
<stop stop-color="#7BCA4A"/>
<stop offset="1" stop-color="#67B338"/>
</linearGradient>
</defs>
</svg>
