<svg width="121" height="36" viewBox="0 0 121 36" fill="none" xmlns="http://www.w3.org/2000/svg">
<path d="M114.57 31.2356C116.917 31.2356 118.58 30.7976 119.819 29.8542V25.5752C118.547 26.4849 117.015 27.0577 114.863 27.0577C111.245 27.0577 109.745 24.16 109.745 19.5778C109.745 14.7596 111.571 12.3 114.896 12.3C116.852 12.3 118.775 13.0076 119.786 13.6814V9.23394C118.71 8.62747 116.852 8.18945 114.309 8.18945C107.822 8.18945 104.464 13.0076 104.464 19.7462C104.496 27.125 107.789 31.2356 114.57 31.2356ZM82.8494 29.2814V25.0024C81.2845 26.1142 78.6113 27.0913 76.1662 27.0913C72.4497 27.0913 71.0479 25.2719 70.8197 21.5657H83.0776V18.8028C83.0776 11.0871 79.7849 8.18945 74.7318 8.18945C68.5377 8.18945 65.6036 13.075 65.6036 19.7799C65.6036 27.4957 69.2875 31.2356 75.7424 31.2356C78.9699 31.2356 81.3497 30.3259 82.8494 29.2814ZM36.3281 8.59377V17.354H29.5472V8.59377H24.4615V30.7976H29.5472V21.532H36.3281V30.7976H41.4139V8.59377H36.3281ZM64.3322 26.6196H62.0827V8.59377H47.282V10.4806C47.282 15.9052 46.956 22.9134 45.1629 26.6196H43.5329V35.8516H48.2274V30.7976H59.6051V35.8516H64.2996V26.6196H64.3322ZM99.0519 30.7976H104.822L96.6721 18.8365L103.844 8.59377H98.7259L91.5537 18.8365V8.59377H86.468V30.7976H91.5537V19.881L99.0519 30.7976ZM74.6014 12.3C77.1116 12.3 77.8941 14.4564 77.8941 17.2529V17.6909H70.8197C70.9501 14.1532 72.1889 12.3 74.6014 12.3ZM56.997 26.6196H49.8248C51.2267 23.284 51.6179 17.2192 51.6179 13.3782V12.7043H56.997V26.6196Z" fill="black"/>
<path d="M20.2234 30.7975H15.0399V4.28098H12.7253C8.48718 4.28098 6.27033 6.47104 6.27033 9.73929C6.27033 13.4455 7.80256 15.1639 10.9648 17.354L13.5729 19.1734L6.07472 30.7975H0.5L7.24835 20.42C3.36886 17.5561 1.18462 14.7596 1.18462 10.0425C1.18462 4.14621 5.1619 0.136719 12.6927 0.136719H20.1908V30.7975H20.2234Z" fill="#FC3F1D"/>
</svg>
