<svg width="25" height="25" viewBox="0 0 25 25" fill="none" xmlns="http://www.w3.org/2000/svg">
<path fill-rule="evenodd" clip-rule="evenodd" d="M7.50048 4.5666C7.23523 4.5666 6.98086 4.67196 6.7933 4.85952C6.60575 5.04707 6.50038 5.30145 6.50038 5.56669V20.5681H18.5015V5.56669C18.5015 5.30145 18.3962 5.04707 18.2086 4.85952C18.021 4.67196 17.7667 4.5666 17.5014 4.5666H7.50048ZM20.5017 20.5681V5.56669C20.5017 4.77097 20.1856 4.00783 19.623 3.44517C19.0603 2.88251 18.2972 2.56641 17.5014 2.56641H7.50048C6.70475 2.56641 5.94162 2.88251 5.37895 3.44517C4.81629 4.00783 4.50019 4.77097 4.50019 5.56669V20.5681H3.5001C2.94776 20.5681 2.5 21.0159 2.5 21.5682C2.5 22.1206 2.94776 22.5683 3.5001 22.5683H21.5018C22.0541 22.5683 22.5019 22.1206 22.5019 21.5682C22.5019 21.0159 22.0541 20.5681 21.5018 20.5681H20.5017ZM8.50057 8.56698C8.50057 8.01464 8.94833 7.56688 9.50067 7.56688H10.5008C11.0531 7.56688 11.5009 8.01464 11.5009 8.56698C11.5009 9.11932 11.0531 9.56707 10.5008 9.56707H9.50067C8.94833 9.56707 8.50057 9.11932 8.50057 8.56698ZM13.501 8.56698C13.501 8.01464 13.9488 7.56688 14.5011 7.56688H15.5012C16.0536 7.56688 16.5013 8.01464 16.5013 8.56698C16.5013 9.11932 16.0536 9.56707 15.5012 9.56707H14.5011C13.9488 9.56707 13.501 9.11932 13.501 8.56698ZM8.50057 12.5674C8.50057 12.015 8.94833 11.5673 9.50067 11.5673H10.5008C11.0531 11.5673 11.5009 12.015 11.5009 12.5674C11.5009 13.1197 11.0531 13.5675 10.5008 13.5675H9.50067C8.94833 13.5675 8.50057 13.1197 8.50057 12.5674ZM13.501 12.5674C13.501 12.015 13.9488 11.5673 14.5011 11.5673H15.5012C16.0536 11.5673 16.5013 12.015 16.5013 12.5674C16.5013 13.1197 16.0536 13.5675 15.5012 13.5675H14.5011C13.9488 13.5675 13.501 13.1197 13.501 12.5674ZM8.50057 16.5677C8.50057 16.0154 8.94833 15.5676 9.50067 15.5676H10.5008C11.0531 15.5676 11.5009 16.0154 11.5009 16.5677C11.5009 17.1201 11.0531 17.5678 10.5008 17.5678H9.50067C8.94833 17.5678 8.50057 17.1201 8.50057 16.5677ZM13.501 16.5677C13.501 16.0154 13.9488 15.5676 14.5011 15.5676H15.5012C16.0536 15.5676 16.5013 16.0154 16.5013 16.5677C16.5013 17.1201 16.0536 17.5678 15.5012 17.5678H14.5011C13.9488 17.5678 13.501 17.1201 13.501 16.5677Z" fill="#6FBB40"/>
</svg>
