<svg width="33" height="33" viewBox="0 0 33 33" fill="none" xmlns="http://www.w3.org/2000/svg">
<g clip-path="url(#clip0_2040_13216)">
<path fill-rule="evenodd" clip-rule="evenodd" d="M16.56 32.5166C25.4076 32.5166 32.5801 25.3441 32.5801 16.4966C32.5801 7.64904 25.4076 0.476562 16.56 0.476562C7.71252 0.476562 0.540039 7.64904 0.540039 16.4966C0.540039 25.3441 7.71252 32.5166 16.56 32.5166ZM20.8736 12.3057C20.8736 14.769 18.8765 16.7657 16.4136 16.7657C13.9504 16.7657 11.9537 14.769 11.9537 12.3057C11.9537 9.8425 13.9504 7.84577 16.4136 7.84577C18.8769 7.84577 20.8736 9.8425 20.8736 12.3057ZM18.6077 12.3057C18.6077 11.7238 18.3766 11.1657 17.9651 10.7543C17.5536 10.3428 16.9955 10.1116 16.4136 10.1116C15.8317 10.1116 15.2736 10.3428 14.8622 10.7543C14.4507 11.1657 14.2195 11.7238 14.2195 12.3057C14.2195 12.8876 14.4507 13.4457 14.8622 13.8572C15.2736 14.2687 15.8317 14.4998 16.4136 14.4998C16.9955 14.4998 17.5536 14.2687 17.9651 13.8572C18.3766 13.4457 18.6077 12.8876 18.6077 12.3057ZM19.6782 17.1137C20.6054 16.3831 21.3026 16.8038 21.5544 17.3097C21.9934 18.1918 21.4974 18.6183 20.3783 19.3366C19.4299 19.9454 18.1303 20.1757 17.2816 20.2632L17.9919 20.9732L20.6202 23.6014C20.8119 23.7932 20.9197 24.0534 20.9197 24.3246C20.9197 24.5958 20.8119 24.8559 20.6202 25.0477L20.4997 25.1682C20.3079 25.36 20.0478 25.4677 19.7765 25.4677C19.5053 25.4677 19.2452 25.36 19.0534 25.1682L16.4252 22.54L13.7969 25.1682C13.6051 25.36 13.345 25.4677 13.0738 25.4677C12.8025 25.4677 12.5424 25.36 12.3506 25.1682L12.2302 25.0477C12.0384 24.8559 11.9306 24.5958 11.9306 24.3246C11.9306 24.0534 12.0384 23.7932 12.2302 23.6014L14.8584 20.9732L15.5665 20.2651C14.7181 20.1792 13.4044 19.9502 12.4484 19.3366C11.3289 18.6179 10.8332 18.1918 11.2722 17.3097C11.524 16.8038 12.2215 16.3831 13.1481 17.1137C14.4009 18.1005 16.413 18.1005 16.413 18.1005C16.413 18.1005 18.4257 18.1005 19.6782 17.1137Z" fill="#6FBB40"/>
</g>
<defs>
<clipPath id="clip0_2040_13216">
<rect width="32.04" height="32.04" fill="white" transform="translate(0.540039 0.476562)"/>
</clipPath>
</defs>
</svg>
