<svg width="91" height="91" viewBox="0 0 91 91" fill="none" xmlns="http://www.w3.org/2000/svg">
<path d="M20.7564 37.9713C21.7923 39.1233 20.998 41.7602 19.4488 41.7602C19.0729 41.7602 18.7097 41.6169 18.4455 41.3495C14.8035 37.6646 12.5549 32.5995 12.5549 27.0092C12.5549 15.7421 21.6887 6.6084 32.9557 6.6084C44.2228 6.6084 53.3565 15.7421 53.3565 27.0092C53.3565 37.2652 45.7885 45.7536 35.9323 47.1944C34.8002 47.3599 33.8434 46.4367 33.8434 45.2925C33.8434 44.2238 34.6842 43.355 35.7377 43.175C43.4706 41.8537 49.3565 35.1188 49.3565 27.0092C49.3565 17.9513 42.0136 10.6084 32.9557 10.6084C23.8978 10.6084 16.5549 17.9513 16.5549 27.0092C16.5549 31.2234 18.1443 35.0663 20.7564 37.9713Z" fill="#6FBB40"/>
<path d="M34.1207 18.7922C34.1208 17.6876 33.2255 16.7921 32.1209 16.792C31.0164 16.7919 30.1208 17.6872 30.1207 18.7918L30.1197 28.2986C30.1196 29.4032 31.0149 30.2987 32.1195 30.2989C32.135 30.2989 32.1505 30.2987 32.1659 30.2983H40.2223C41.3269 30.2983 42.2223 29.4029 42.2223 28.2983C42.2223 27.1938 41.3269 26.2983 40.2223 26.2983H34.1199L34.1207 18.7922Z" fill="#6FBB40"/>
<path fill-rule="evenodd" clip-rule="evenodd" d="M51.0709 42.9028C51.0709 41.7983 51.9664 40.9028 53.0709 40.9028H64.7989C66.4945 40.9028 68.0508 41.8414 68.8419 43.3412L76.9912 58.7906C77.0441 58.8909 77.1257 58.9732 77.2255 59.0269L82.6896 61.9691C84.1702 62.7664 85.0935 64.3122 85.0935 65.9938V79.0159C85.0935 81.5404 83.047 83.5869 80.5225 83.5869H74.9953C74.1304 85.7041 72.0506 87.196 69.6223 87.196C67.1209 87.196 64.9892 85.6129 64.1745 83.394H34.1973C33.383 85.6054 31.2575 87.1826 28.7635 87.1826C26.2701 87.1826 24.1449 85.6061 23.3303 83.3955H17.153C14.6285 83.3955 12.582 81.349 12.582 78.8245V53.8916C12.582 52.787 13.4775 51.8916 14.582 51.8916C15.6866 51.8916 16.582 52.787 16.582 53.8916V78.8245C16.582 79.1399 16.8377 79.3955 17.153 79.3955H23.3292C24.143 77.1834 26.269 75.6055 28.7635 75.6055C31.2575 75.6055 33.3831 77.1827 34.1973 79.394H64.1747C64.9896 77.1755 67.1211 75.5928 69.6223 75.5928C72.1953 75.5928 74.3771 77.2678 75.1368 79.5869H80.5225C80.8379 79.5869 81.0935 79.3312 81.0935 79.0159V65.9938C81.0935 65.7837 80.9782 65.5906 80.7932 65.491L75.3291 62.5488C74.9511 62.3453 74.6058 62.0907 74.302 61.7939C74.2171 61.8049 74.1305 61.8105 74.0426 61.8105H55.6419C53.1174 61.8105 51.0709 59.7641 51.0709 57.2396V50.3491C51.0709 49.2446 51.9664 48.3491 53.0709 48.3491C54.1755 48.3491 55.0709 49.2446 55.0709 50.3491V57.2396C55.0709 57.5549 55.3266 57.8105 55.6419 57.8105H71.9519L65.3039 45.2074C65.2051 45.0201 65.0107 44.9028 64.7989 44.9028H53.0709C51.9664 44.9028 51.0709 44.0074 51.0709 42.9028ZM30.4137 80.7029C30.3343 80.9183 30.291 81.1511 30.291 81.394C30.291 81.637 30.3343 81.8698 30.4136 82.0852C30.1433 82.7298 29.5063 83.1826 28.7635 83.1826C27.7923 83.1826 27.0019 82.4085 26.9757 81.4436C26.976 81.4276 26.9762 81.4116 26.9762 81.3955C26.9762 81.3789 26.976 81.3624 26.9756 81.3459C27.0011 80.3803 27.7918 79.6055 28.7635 79.6055C29.5063 79.6055 30.1433 80.0583 30.4137 80.7029ZM69.6223 83.196C70.6173 83.196 71.4239 82.3894 71.4239 81.3944C71.4239 80.3994 70.6173 79.5928 69.6223 79.5928C68.6273 79.5928 67.8207 80.3994 67.8207 81.3944C67.8207 82.3894 68.6273 83.196 69.6223 83.196Z" fill="#6FBB40"/>
<path d="M4.24579 46.7534C4.24579 45.6488 5.14122 44.7534 6.24579 44.7534H27.9161C29.0207 44.7534 29.9161 45.6488 29.9161 46.7534C29.9161 47.858 29.0207 48.7534 27.9161 48.7534H6.24579C5.14122 48.7534 4.24579 47.858 4.24579 46.7534Z" fill="#6FBB40"/>
</svg>
