<svg width="91" height="91" viewBox="0 0 91 91" fill="none" xmlns="http://www.w3.org/2000/svg">
<path fill-rule="evenodd" clip-rule="evenodd" d="M54.4379 15.1428C55.4908 11.8311 54.7038 8.06112 52.077 5.43432C48.3276 1.68492 42.2492 1.684 38.4987 5.43158L38.1319 5.79834L37.7679 5.43432C34.0176 1.684 27.9371 1.684 24.1868 5.43432C20.4365 9.18465 20.4365 15.2651 24.1868 19.0154L36.696 31.5247C37.092 31.9207 37.6129 32.1159 38.1319 32.1103C38.651 32.1159 39.1718 31.9207 39.5678 31.5247L43.9029 27.1896L54.0874 37.374C54.46 37.7467 54.9499 37.9307 55.4383 37.926C55.9267 37.9307 56.4165 37.7467 56.7892 37.374L67.0707 27.0925C70.1991 23.9642 70.1991 18.8921 67.0707 15.7637C63.9423 12.6354 58.8703 12.6354 55.7419 15.7637L55.4383 16.0674L55.1329 15.762C54.9106 15.5398 54.6784 15.3334 54.4379 15.1428ZM38.1319 27.3037L41.7753 23.6603C40.9911 20.9475 41.6679 17.9017 43.8059 15.7637C45.6939 13.8757 48.2899 13.1272 50.7393 13.5181C51.1709 11.6904 50.674 9.68815 49.2486 8.26275C47.0604 6.07453 43.5126 6.07453 41.3244 8.26275L38.1319 11.4552L34.9395 8.26275C32.7512 6.07453 29.2034 6.07453 27.0152 8.26275C24.827 10.451 24.827 13.9988 27.0152 16.187L38.1319 27.3037ZM55.4383 33.0681L64.2423 24.2641C65.8085 22.6978 65.8085 20.1584 64.2423 18.5922C62.676 17.0259 60.1366 17.0259 58.5704 18.5922L55.4383 21.7242L52.3062 18.5922C50.74 17.0259 48.2006 17.0259 46.6343 18.5922C45.068 20.1584 45.068 22.6978 46.6343 24.2641L55.4383 33.0681Z" fill="#6FBB40"/>
<path fill-rule="evenodd" clip-rule="evenodd" d="M44.4969 90.8847C44.7154 90.9476 44.9358 90.9716 45.1509 90.9607C45.3659 90.9716 45.5863 90.9476 45.8048 90.8847L78.595 81.4476C79.8801 81.0777 80.7653 79.9019 80.7653 78.5646V61.0457H86.4253C88.7685 61.0457 90.2072 58.4796 88.9847 56.4805L80.91 43.2767C80.365 42.3853 79.3955 41.8418 78.3507 41.8418H45.4369C45.4149 41.8414 45.393 41.8414 45.3711 41.8418H12.5665C11.5561 41.8418 10.6135 42.3505 10.0588 43.1951L1.38831 56.399C0.0782856 58.394 1.50934 61.0457 3.89598 61.0457H9.53641V78.5646C9.53641 79.9019 10.4215 81.0777 11.7067 81.4476L44.4969 90.8847ZM37.4937 52.7458L41.7982 45.8418H13.1062L5.74898 57.0457H36.1938C37.2984 57.0457 38.1938 57.9411 38.1938 59.0457C38.1938 60.1503 37.2984 61.0457 36.1938 61.0457H13.5364V77.8118L43.377 86.4V50.87L40.888 54.8621C40.3036 55.7994 39.07 56.0855 38.1327 55.5011C37.1953 54.9167 36.9093 53.6831 37.4937 52.7458ZM47.377 51.0605V86.2699L76.7653 77.8118V61.0457H54.9418C53.8764 61.0457 52.8909 60.4806 52.3527 59.5612L47.377 51.0605ZM55.5152 57.0457L48.9572 45.8418H77.7901L84.6416 57.0457H55.5152Z" fill="#6FBB40"/>
</svg>
