<svg width="91" height="91" viewBox="0 0 91 91" fill="none" xmlns="http://www.w3.org/2000/svg">
<path fill-rule="evenodd" clip-rule="evenodd" d="M65.8553 19.9643C65.8553 23.072 63.3361 25.5912 60.2284 25.5912C57.1208 25.5912 54.6015 23.072 54.6015 19.9643C54.6015 16.8567 57.1208 14.3374 60.2284 14.3374C63.3361 14.3374 65.8553 16.8567 65.8553 19.9643ZM61.8553 19.9643C61.8553 20.8628 61.1269 21.5912 60.2284 21.5912C59.3299 21.5912 58.6015 20.8628 58.6015 19.9643C58.6015 19.0658 59.3299 18.3374 60.2284 18.3374C61.1269 18.3374 61.8553 19.0658 61.8553 19.9643Z" fill="#6FBB40"/>
<path fill-rule="evenodd" clip-rule="evenodd" d="M46.5398 19.8454C46.2072 12.3302 52.2102 6.05566 59.7328 6.05566H60.8112C68.8899 6.05566 75.1383 13.1398 74.1293 21.1553C73.6456 24.9985 72.0063 28.6043 69.4284 31.4955L62.9699 38.7387C61.7773 40.0763 59.7021 40.1261 58.4467 38.8473L51.9061 32.1852C48.6562 28.8749 46.7449 24.4799 46.5398 19.8454ZM59.7328 10.0557C54.4888 10.0557 50.3041 14.4297 50.5359 19.6686C50.6974 23.317 52.202 26.7769 54.7605 29.3829L60.6258 35.3573L66.4428 28.8334C68.4816 26.5469 69.7781 23.6952 70.1607 20.6557C70.8689 15.0288 66.4825 10.0557 60.8112 10.0557H59.7328Z" fill="#6FBB40"/>
<path d="M46.1851 31.0135C45.3391 29.734 43.4165 29.6651 42.8491 31.0901C40.0664 38.0791 41.5035 46.3578 47.1604 52.0147C54.2739 59.1283 65.5335 59.569 73.1608 53.3369C73.2278 53.4333 73.3043 53.5252 73.3903 53.6111L81.2365 61.4573C82.0175 62.2384 83.2839 62.2384 84.0649 61.4573C84.846 60.6763 84.846 59.4099 84.0649 58.6289L76.2187 50.7827C76.1327 50.6967 76.0409 50.6202 75.9444 50.5532C80.9028 44.4847 81.6372 36.1171 78.1476 29.3676C77.4595 28.0367 75.6012 28.2439 74.8528 29.5419C74.4893 30.1722 74.4763 30.9466 74.7915 31.6024C77.5493 37.3395 76.55 44.4301 71.7938 49.1863C65.7725 55.2076 56.0101 55.2076 49.9888 49.1863C45.6104 44.8079 44.4157 38.4512 46.405 32.9934C46.6446 32.336 46.5711 31.5971 46.1851 31.0135Z" fill="#6FBB40"/>
<path fill-rule="evenodd" clip-rule="evenodd" d="M58.1908 62.1203C58.1908 61.1905 57.4965 60.4158 56.5826 60.2442C55.3769 60.0178 54.1908 60.898 54.1908 62.1247V81.1211C54.1908 81.4534 53.9214 81.7227 53.5891 81.7227H8.88268C8.55039 81.7227 8.28101 81.4534 8.28101 81.1211V53.2114H15.54C16.6446 53.2114 17.54 52.316 17.54 51.2114C17.54 50.1069 16.6446 49.2114 15.54 49.2114H9.23374C11.5524 44.8304 14.7305 38.7527 16.228 35.6555C16.4456 35.2054 16.9198 34.9341 17.2746 34.9341H25.5648L21.1933 49.9412C20.8899 50.983 20.8746 52.0877 21.1492 53.1375L22.1565 56.9887C22.8471 59.6288 25.2323 61.4704 27.9612 61.4704H34.8584C37.441 61.4704 39.7339 59.8177 40.5506 57.3677L41.8925 53.3416C42.2666 52.2194 42.3006 51.0117 41.9903 49.8703L37.4044 33.001C37.4357 31.9117 36.6008 30.9341 35.4877 30.9341H17.2746C15.2431 30.9341 13.4479 32.2161 12.6268 33.9143C10.9675 37.3462 7.14374 44.6254 4.81956 48.9972C4.46549 49.6632 4.28101 50.4043 4.28101 51.1579V81.1211C4.28101 83.6625 6.34124 85.7227 8.88268 85.7227H53.5891C56.1306 85.7227 58.1908 83.6625 58.1908 81.1211V62.1203ZM33.7848 34.9341H29.731L25.0337 51.0599C24.9326 51.4071 24.9275 51.7753 25.019 52.1253L26.0263 55.9765C26.2565 56.8565 27.0516 57.4704 27.9612 57.4704H34.8584C35.7193 57.4704 36.4836 56.9195 36.7558 56.1028L38.0978 52.0767C38.2225 51.7026 38.2338 51.3001 38.1304 50.9196L33.7848 34.9341Z" fill="#6FBB40"/>
</svg>
