<svg width="91" height="91" viewBox="0 0 91 91" fill="none" xmlns="http://www.w3.org/2000/svg">
<path d="M46.6964 12.2251C46.6964 9.46368 48.935 7.2251 51.6964 7.2251H82.51C85.2714 7.2251 87.51 9.46367 87.51 12.2251V79.614C87.51 82.3754 85.2714 84.614 82.51 84.614H51.6964C48.935 84.614 46.6964 82.3754 46.6964 79.614V69.0276C46.6964 67.923 47.5918 67.0276 48.6964 67.0276C49.801 67.0276 50.6964 67.923 50.6964 69.0276V79.614C50.6964 80.1663 51.1441 80.614 51.6964 80.614H82.51C83.0623 80.614 83.51 80.1663 83.51 79.614V12.2251C83.51 11.6728 83.0623 11.2251 82.51 11.2251H51.6964C51.1441 11.2251 50.6964 11.6728 50.6964 12.2251V25.0986C50.6964 26.2032 49.801 27.0986 48.6964 27.0986C47.5918 27.0986 46.6964 26.2032 46.6964 25.0986V12.2251Z" fill="#6FBB40"/>
<path fill-rule="evenodd" clip-rule="evenodd" d="M60.5369 34.2637C59.4323 34.2637 58.5369 35.1592 58.5369 36.2637C58.5369 37.3683 59.4323 38.2637 60.5369 38.2637H61.5114V49.0449H60.5369C59.4323 49.0449 58.5369 49.9403 58.5369 51.0449C58.5369 52.1494 59.4323 53.0449 60.5369 53.0449H61.5114V55.5752C61.5114 56.6797 62.4068 57.5752 63.5114 57.5752C64.616 57.5752 65.5114 56.6797 65.5114 55.5752V53.0449H68.4537C69.5583 53.0449 70.4537 52.1494 70.4537 51.0449C70.4537 49.9403 69.5583 49.0449 68.4537 49.0449H65.5114V46.4094H70.8791C74.233 46.4094 76.9519 43.6905 76.9519 40.3365C76.9519 36.9826 74.233 34.2637 70.8791 34.2637H60.5369ZM65.5114 42.4094H70.8791C72.0238 42.4094 72.9519 41.4813 72.9519 40.3365C72.9519 39.1918 72.0238 38.2637 70.8791 38.2637H65.5114V42.4094Z" fill="#6FBB40"/>
<path d="M10.5045 49.4136C10.5045 48.309 11.3999 47.4136 12.5045 47.4136H18.0408C19.1453 47.4136 20.0408 48.309 20.0408 49.4136C20.0408 50.5181 19.1453 51.4136 18.0408 51.4136H12.5045C11.3999 51.4136 10.5045 50.5181 10.5045 49.4136Z" fill="#6FBB40"/>
<path d="M24.2458 47.4136C23.1412 47.4136 22.2458 48.309 22.2458 49.4136C22.2458 50.5181 23.1412 51.4136 24.2458 51.4136H26.3832C27.4878 51.4136 28.3832 50.5181 28.3832 49.4136C28.3832 48.309 27.4878 47.4136 26.3832 47.4136H24.2458Z" fill="#6FBB40"/>
<path fill-rule="evenodd" clip-rule="evenodd" d="M6.13617 30.5913C4.47932 30.5913 3.13617 31.9345 3.13617 33.5913V60.5349C3.13617 62.1918 4.47932 63.5349 6.13617 63.5349H52.5081C54.165 63.5349 55.5081 62.1918 55.5081 60.5349V33.5913C55.5081 31.9345 54.165 30.5913 52.5081 30.5913H6.13617ZM7.13617 43.8603V59.5349H51.5081V43.8603H7.13617ZM7.13617 39.8603H51.5081V34.5913H7.13617V39.8603Z" fill="#6FBB40"/>
</svg>
