<svg width="18" height="18" viewBox="0 0 18 18" fill="none" xmlns="http://www.w3.org/2000/svg">
<path fill-rule="evenodd" clip-rule="evenodd" d="M4.875 5.25C4.875 4.42157 5.54657 3.75 6.375 3.75H11.625C12.4534 3.75 13.125 4.42157 13.125 5.25V6.75C13.125 7.57843 12.4534 8.25 11.625 8.25H6.375C5.54657 8.25 4.875 7.57843 4.875 6.75V5.25ZM6.375 5.25H11.625V6.75H6.375V5.25Z" fill="#6FBB40"/>
<path d="M6.375 10.5C6.375 10.9142 6.03921 11.25 5.625 11.25C5.21079 11.25 4.875 10.9142 4.875 10.5C4.875 10.0858 5.21079 9.75 5.625 9.75C6.03921 9.75 6.375 10.0858 6.375 10.5Z" fill="#6FBB40"/>
<path d="M5.625 14.25C6.03921 14.25 6.375 13.9142 6.375 13.5C6.375 13.0858 6.03921 12.75 5.625 12.75C5.21079 12.75 4.875 13.0858 4.875 13.5C4.875 13.9142 5.21079 14.25 5.625 14.25Z" fill="#6FBB40"/>
<path d="M9.75 10.5C9.75 10.9142 9.41421 11.25 9 11.25C8.58579 11.25 8.25 10.9142 8.25 10.5C8.25 10.0858 8.58579 9.75 9 9.75C9.41421 9.75 9.75 10.0858 9.75 10.5Z" fill="#6FBB40"/>
<path d="M9 14.25C9.41421 14.25 9.75 13.9142 9.75 13.5C9.75 13.0858 9.41421 12.75 9 12.75C8.58579 12.75 8.25 13.0858 8.25 13.5C8.25 13.9142 8.58579 14.25 9 14.25Z" fill="#6FBB40"/>
<path d="M13.125 10.5C13.125 10.9142 12.7892 11.25 12.375 11.25C11.9608 11.25 11.625 10.9142 11.625 10.5C11.625 10.0858 11.9608 9.75 12.375 9.75C12.7892 9.75 13.125 10.0858 13.125 10.5Z" fill="#6FBB40"/>
<path d="M12.375 14.25C12.7892 14.25 13.125 13.9142 13.125 13.5C13.125 13.0858 12.7892 12.75 12.375 12.75C11.9608 12.75 11.625 13.0858 11.625 13.5C11.625 13.9142 11.9608 14.25 12.375 14.25Z" fill="#6FBB40"/>
<path fill-rule="evenodd" clip-rule="evenodd" d="M1.875 3C1.875 1.75736 2.88236 0.75 4.125 0.75H13.875C15.1176 0.75 16.125 1.75736 16.125 3V15C16.125 16.2426 15.1176 17.25 13.875 17.25H4.125C2.88236 17.25 1.875 16.2426 1.875 15V3ZM4.125 2.25H13.875C14.2892 2.25 14.625 2.58579 14.625 3V15C14.625 15.4142 14.2892 15.75 13.875 15.75H4.125C3.71079 15.75 3.375 15.4142 3.375 15V3C3.375 2.58579 3.71079 2.25 4.125 2.25Z" fill="#6FBB40"/>
</svg>
