<svg width="33" height="33" viewBox="0 0 33 33" fill="none" xmlns="http://www.w3.org/2000/svg">
<path d="M22.6089 13.3499C23.0255 12.9333 23.7009 12.9333 24.1175 13.3499C24.534 13.7665 24.534 14.4419 24.1175 14.8585L18.3363 20.6396C17.7115 21.2645 16.6983 21.2645 16.0735 20.6396L2.771 7.33714C2.35441 6.92055 2.35441 6.24514 2.771 5.82855C3.18758 5.41197 3.863 5.41197 4.27958 5.82855L17.2049 18.7539L22.6089 13.3499Z" fill="#6FBB40"/>
<path d="M28.2262 8.36382C27.8665 7.38717 26.8893 6.41054 25.9383 6.03809C25.2569 5.78108 25.0257 5.76815 18.0331 5.76815H12.6008C12.0849 5.76815 11.6667 6.18634 11.6667 6.70221C11.6667 7.4102 12.0538 7.79889 12.7618 7.80016L18.8687 7.81104H18.8701C24.6787 7.81104 24.7302 7.81104 25.2957 8.09388C25.7197 8.31241 25.9512 8.5436 26.1569 8.96774L26.4524 9.53315V24.5941L26.1569 25.1595C25.9512 25.5837 25.72 25.8148 25.2957 26.0334L24.7302 26.3162H9.66528L9.09967 26.0204C8.67542 25.8148 8.44422 25.5837 8.22563 25.1595C7.95562 24.607 7.94266 24.4654 7.94266 21.0088V18.5036C7.94266 17.9143 7.4649 17.4365 6.87555 17.4365C6.34301 17.4365 5.91129 17.8682 5.91129 18.4008V19.9294C5.88544 24.877 5.88543 25.0312 6.15543 25.7637C6.5412 26.7662 7.49256 27.7173 8.49502 28.0897C9.22777 28.3726 9.35617 28.3726 17.1973 28.3726C25.0383 28.3726 25.1667 28.3726 25.8995 28.0897C26.8893 27.717 27.8533 26.7533 28.2262 25.7637C28.5091 25.0312 28.5091 24.9025 28.5091 17.0658V17.0617C28.5091 9.22502 28.5091 9.09632 28.2262 8.36382Z" fill="#6FBB40"/>
</svg>
