<svg width="24" height="24" viewBox="0 0 24 24" fill="none" xmlns="http://www.w3.org/2000/svg">
<path d="M16.0513 4.03027H9.86158C9.46301 4.03027 9.1189 4.26345 8.95823 4.60083H6.89209C7.10042 3.14741 8.35054 2.03027 9.86158 2.03027H16.0513C17.7081 2.03027 19.0513 3.37342 19.0513 5.03027V16.495C19.0513 18.1518 17.7081 19.495 16.0513 19.495H15.9026C15.9227 19.3547 15.9331 19.2113 15.9331 19.0655V17.495H16.0513C16.6035 17.495 17.0513 17.0473 17.0513 16.495V5.03027C17.0513 4.47799 16.6035 4.03027 16.0513 4.03027Z" fill="#929C91"/>
<path fill-rule="evenodd" clip-rule="evenodd" d="M2.76953 8.48071C2.76953 6.82386 4.11268 5.48071 5.76953 5.48071H11.9592C13.6161 5.48071 14.9592 6.82386 14.9592 8.48071V19.9454C14.9592 21.6023 13.6161 22.9454 11.9592 22.9454H5.76953C4.11268 22.9454 2.76953 21.6023 2.76953 19.9454V8.48071ZM5.76953 7.48071H11.9592C12.5115 7.48071 12.9592 7.92843 12.9592 8.48071V19.9454C12.9592 20.4977 12.5115 20.9454 11.9592 20.9454H5.76953C5.21725 20.9454 4.76953 20.4977 4.76953 19.9454V8.48071C4.76953 7.92843 5.21725 7.48071 5.76953 7.48071Z" fill="#929C91"/>
</svg>
