<svg width="24" height="25" viewBox="0 0 24 25" fill="none" xmlns="http://www.w3.org/2000/svg">
<path d="M8.11133 13.5439C8.11133 12.9917 8.55904 12.5439 9.11133 12.5439H15C15.5523 12.5439 16 12.9917 16 13.5439C16 14.0962 15.5523 14.5439 15 14.5439H9.11133C8.55904 14.5439 8.11133 14.0962 8.11133 13.5439Z" fill="#6FBB40"/>
<path d="M9.11133 16.3218C8.55904 16.3218 8.11133 16.7695 8.11133 17.3218C8.11133 17.8741 8.55904 18.3218 9.11133 18.3218H15C15.5523 18.3218 16 17.8741 16 17.3218C16 16.7695 15.5523 16.3218 15 16.3218H9.11133Z" fill="#6FBB40"/>
<path fill-rule="evenodd" clip-rule="evenodd" d="M4 5.5C4 3.84315 5.34315 2.5 7 2.5H13.8109C14.0529 2.5 14.2867 2.58776 14.469 2.747L19.4283 7.08081C19.863 7.4606 20.1123 8.00964 20.1123 8.58682V19.7778C20.1123 21.4347 18.7692 22.7778 17.1123 22.7778H7C5.34315 22.7778 4 21.4347 4 19.7778V5.5ZM17.1123 20.7778H7C6.44772 20.7778 6 20.3301 6 19.7778V5.5C6 4.94772 6.44772 4.5 7 4.5H12.6201V7.55078C12.6201 8.65535 13.5155 9.55078 14.6201 9.55078H18.1123V19.7778C18.1123 20.3301 17.6646 20.7778 17.1123 20.7778ZM16.9267 7.55078L14.6201 5.53513V7.55078H16.9267Z" fill="#6FBB40"/>
</svg>
