<svg width="24" height="25" viewBox="0 0 24 25" fill="none" xmlns="http://www.w3.org/2000/svg">
<path fill-rule="evenodd" clip-rule="evenodd" d="M12 2.74609C12.5523 2.74609 13 3.19381 13 3.74609V14.3319L16.2929 11.039C16.6834 10.6485 17.3166 10.6485 17.7071 11.039C18.0976 11.4295 18.0976 12.0627 17.7071 12.4532L12.7071 17.4532C12.5196 17.6407 12.2652 17.7461 12 17.7461C11.7348 17.7461 11.4804 17.6407 11.2929 17.4532L6.29289 12.4532C5.90237 12.0627 5.90237 11.4295 6.29289 11.039C6.68342 10.6485 7.31658 10.6485 7.70711 11.039L11 14.3319V3.74609C11 3.19381 11.4477 2.74609 12 2.74609ZM5 20.6798C5 20.1275 5.44772 19.6798 6 19.6798H18C18.5523 19.6798 19 20.1275 19 20.6798C19 21.2321 18.5523 21.6798 18 21.6798H6C5.44772 21.6798 5 21.2321 5 20.6798Z" fill="#6FBB40"/>
</svg>
