<svg width="19" height="19" viewBox="0 0 19 19" fill="none" xmlns="http://www.w3.org/2000/svg">
<path d="M16.2478 9.63077C16.0489 9.63077 15.8582 9.70978 15.7176 9.85041C15.5769 9.99105 15.4979 10.1818 15.4979 10.3807V14.8801C15.4979 15.0789 15.4189 15.2697 15.2783 15.4103C15.1377 15.551 14.9469 15.63 14.748 15.63H4.24945C4.05057 15.63 3.85983 15.551 3.71919 15.4103C3.57856 15.2697 3.49955 15.0789 3.49955 14.8801V4.38148C3.49955 4.1826 3.57856 3.99186 3.71919 3.85123C3.85983 3.71059 4.05057 3.63159 4.24945 3.63159H8.74884C8.94773 3.63159 9.13847 3.55258 9.2791 3.41195C9.41973 3.27131 9.49874 3.08057 9.49874 2.88169C9.49874 2.6828 9.41973 2.49206 9.2791 2.35143C9.13847 2.2108 8.94773 2.13179 8.74884 2.13179H4.24945C3.65279 2.13179 3.08058 2.36881 2.65868 2.79071C2.23678 3.21261 1.99976 3.78483 1.99976 4.38148V14.8801C1.99976 15.4767 2.23678 16.0489 2.65868 16.4708C3.08058 16.8927 3.65279 17.1298 4.24945 17.1298H14.748C15.3447 17.1298 15.9169 16.8927 16.3388 16.4708C16.7607 16.0489 16.9977 15.4767 16.9977 14.8801V10.3807C16.9977 10.1818 16.9187 9.99105 16.7781 9.85041C16.6374 9.70978 16.4467 9.63077 16.2478 9.63077ZM4.99935 10.2007V13.3803C4.99935 13.5791 5.07836 13.7699 5.21899 13.9105C5.35962 14.0512 5.55036 14.1302 5.74925 14.1302H8.92882C9.02751 14.1307 9.12534 14.1118 9.21671 14.0745C9.30807 14.0372 9.39117 13.9822 9.46124 13.9127L14.6505 8.7159L16.7803 6.63118C16.8505 6.56147 16.9063 6.47853 16.9444 6.38715C16.9825 6.29576 17.0021 6.19775 17.0021 6.09875C17.0021 5.99976 16.9825 5.90174 16.9444 5.81036C16.9063 5.71898 16.8505 5.63604 16.7803 5.56632L13.6007 2.34926C13.531 2.27897 13.448 2.22319 13.3566 2.18511C13.2653 2.14704 13.1673 2.12744 13.0683 2.12744C12.9693 2.12744 12.8712 2.14704 12.7799 2.18511C12.6885 2.22319 12.6055 2.27897 12.5358 2.34926L10.4211 4.47147L5.21682 9.66827C5.14732 9.73834 5.09233 9.82144 5.05501 9.91281C5.01769 10.0042 4.99878 10.102 4.99935 10.2007ZM13.0683 3.93904L15.1905 6.06126L14.1256 7.12611L12.0034 5.0039L13.0683 3.93904ZM6.49915 10.5082L10.946 6.06126L13.0683 8.18347L8.62136 12.6304H6.49915V10.5082Z" fill="#6FBB40"/>
</svg>
