<svg width="25" height="25" viewBox="0 0 25 25" fill="none" xmlns="http://www.w3.org/2000/svg">
<path d="M2.50012 6.47476C2.50012 5.94428 2.71085 5.43554 3.08595 5.06044C3.46105 4.68534 3.9698 4.47461 4.50027 4.47461H20.5014C21.0319 4.47461 21.5407 4.68534 21.9158 5.06044C22.2909 5.43554 22.5016 5.94428 22.5016 6.47476V18.4756C22.5016 19.0061 22.2909 19.5149 21.9158 19.89C21.5407 20.2651 21.0319 20.4758 20.5014 20.4758H4.50027C3.9698 20.4758 3.46105 20.2651 3.08595 19.89C2.71085 19.5149 2.50012 19.0061 2.50012 18.4756V6.47476ZM6.01938 6.47476L12.5009 12.1462L18.9823 6.47476H6.01938ZM20.5014 7.80385L13.1599 14.2283C12.9775 14.3881 12.7433 14.4762 12.5009 14.4762C12.2584 14.4762 12.0242 14.3881 11.8418 14.2283L4.50027 7.80385V18.4756H20.5014V7.80385Z" fill="#6FBB40"/>
</svg>
