<svg width="24" height="24" viewBox="0 0 24 24" fill="none" xmlns="http://www.w3.org/2000/svg">
<path fill-rule="evenodd" clip-rule="evenodd" d="M2.45703 6.50244V17.4976C2.45703 19.7067 4.24789 21.4976 6.45703 21.4976H10.96C12.0645 21.4976 12.96 20.6021 12.96 19.4976V13.0054H19.5439C20.6485 13.0054 21.5439 12.1099 21.5439 11.0054V6.50244C21.5439 4.2933 19.7531 2.50244 17.5439 2.50244H6.45703C4.24789 2.50244 2.45703 4.2933 2.45703 6.50244ZM10.96 4.50244H6.45703C5.35246 4.50244 4.45703 5.39787 4.45703 6.50244V10.9946H10.96V4.50244ZM4.45703 17.4976L4.45703 13.0054H10.96V19.4976H6.45703C5.35246 19.4976 4.45703 18.6021 4.45703 17.4976ZM13.041 4.50244H17.5439C18.6485 4.50244 19.5439 5.39787 19.5439 6.50244V11.0054H13.041V4.50244Z" fill="#6FBB40"/>
</svg>
