<svg width="25" height="24" viewBox="0 0 25 24" fill="none" xmlns="http://www.w3.org/2000/svg">
<path d="M12.5 3C10.6435 3 8.86301 3.7375 7.55025 5.05025C6.2375 6.36301 5.5 8.14349 5.5 10C5.5 12.862 7.282 15.623 9.238 17.762C10.0643 18.6613 10.9524 19.5015 11.8956 20.2763C12.2474 20.5652 12.7527 20.5653 13.1045 20.2765C14.0477 19.5023 14.9357 18.6628 15.762 17.764C17.718 15.623 19.5 12.863 19.5 10C19.5 8.14349 18.7625 6.36301 17.4497 5.05025C16.137 3.7375 14.3565 3 12.5 3ZM13.068 22.823C12.7266 23.058 12.2745 23.0589 11.933 22.824L11.93 22.822L11.924 22.817L11.904 22.803L11.829 22.75C11.4149 22.449 11.0101 22.1355 10.615 21.81C9.60237 20.9782 8.64906 20.0766 7.762 19.112C5.718 16.876 3.5 13.637 3.5 10C3.5 7.61305 4.44821 5.32387 6.13604 3.63604C7.82387 1.94821 10.1131 1 12.5 1C14.8869 1 17.1761 1.94821 18.864 3.63604C20.5518 5.32387 21.5 7.61305 21.5 10C21.5 13.637 19.282 16.877 17.238 19.112C16.0799 20.3717 14.8093 21.5231 13.442 22.552C13.3281 22.6371 13.2131 22.7208 13.097 22.803L13.076 22.817L13.07 22.822L13.068 22.823ZM12.5 8C11.9696 8 11.4609 8.21071 11.0858 8.58579C10.7107 8.96086 10.5 9.46957 10.5 10C10.5 10.5304 10.7107 11.0391 11.0858 11.4142C11.4609 11.7893 11.9696 12 12.5 12C13.0304 12 13.5391 11.7893 13.9142 11.4142C14.2893 11.0391 14.5 10.5304 14.5 10C14.5 9.46957 14.2893 8.96086 13.9142 8.58579C13.5391 8.21071 13.0304 8 12.5 8ZM8.5 10C8.5 8.93914 8.92143 7.92172 9.67157 7.17157C10.4217 6.42143 11.4391 6 12.5 6C13.5609 6 14.5783 6.42143 15.3284 7.17157C16.0786 7.92172 16.5 8.93914 16.5 10C16.5 11.0609 16.0786 12.0783 15.3284 12.8284C14.5783 13.5786 13.5609 14 12.5 14C11.4391 14 10.4217 13.5786 9.67157 12.8284C8.92143 12.0783 8.5 11.0609 8.5 10Z" fill="#6FBB40"/>
</svg>
