<svg width="19" height="19" viewBox="0 0 19 19" fill="none" xmlns="http://www.w3.org/2000/svg">
<path fill-rule="evenodd" clip-rule="evenodd" d="M6.34192 2.65762H12.658C12.7976 2.65762 12.9314 2.71308 13.0301 2.81178C13.1288 2.91049 13.1843 3.04437 13.1843 3.18396V15.816C13.1843 15.9556 13.1288 16.0895 13.0301 16.1882C12.9314 16.2869 12.7976 16.3424 12.658 16.3424H6.34192C6.20233 16.3424 6.06845 16.2869 5.96974 16.1882C5.87104 16.0895 5.81558 15.9556 5.81558 15.816V3.18396C5.81558 3.04437 5.87104 2.91049 5.96974 2.81178C6.06845 2.71308 6.20233 2.65762 6.34192 2.65762ZM4.23657 3.18396C4.23657 2.62559 4.45838 2.09008 4.85321 1.69526C5.24804 1.30043 5.78355 1.07861 6.34192 1.07861L12.658 1.07861C13.2163 1.07861 13.7518 1.30043 14.1467 1.69526C14.5415 2.09008 14.7633 2.62559 14.7633 3.18396V15.816C14.7633 16.3744 14.5415 16.9099 14.1467 17.3047C13.7518 17.6996 13.2163 17.9214 12.658 17.9214H6.34192C5.78355 17.9214 5.24804 17.6996 4.85321 17.3047C4.45838 16.9099 4.23657 16.3744 4.23657 15.816V3.18396ZM9.49994 14.7634C9.77913 14.7634 10.0469 14.6525 10.2443 14.455C10.4417 14.2576 10.5526 13.9899 10.5526 13.7107C10.5526 13.4315 10.4417 13.1638 10.2443 12.9663C10.0469 12.7689 9.77913 12.658 9.49994 12.658C9.22075 12.658 8.953 12.7689 8.75559 12.9663C8.55817 13.1638 8.44727 13.4315 8.44727 13.7107C8.44727 13.9899 8.55817 14.2576 8.75559 14.455C8.953 14.6525 9.22075 14.7634 9.49994 14.7634Z" fill="#6FBB40"/>
</svg>
