<svg width="24" height="24" viewBox="0 0 24 24" fill="none" xmlns="http://www.w3.org/2000/svg">
<path fill-rule="evenodd" clip-rule="evenodd" d="M6.5 7C6.5 5.89543 7.39543 5 8.5 5H15.5C16.6046 5 17.5 5.89543 17.5 7V9C17.5 10.1046 16.6046 11 15.5 11H8.5C7.39543 11 6.5 10.1046 6.5 9V7ZM8.5 7H15.5V9H8.5V7Z" fill="white"/>
<path d="M8.5 14C8.5 14.5523 8.05228 15 7.5 15C6.94772 15 6.5 14.5523 6.5 14C6.5 13.4477 6.94772 13 7.5 13C8.05228 13 8.5 13.4477 8.5 14Z" fill="white"/>
<path d="M7.5 19C8.05228 19 8.5 18.5523 8.5 18C8.5 17.4477 8.05228 17 7.5 17C6.94772 17 6.5 17.4477 6.5 18C6.5 18.5523 6.94772 19 7.5 19Z" fill="white"/>
<path d="M13 14C13 14.5523 12.5523 15 12 15C11.4477 15 11 14.5523 11 14C11 13.4477 11.4477 13 12 13C12.5523 13 13 13.4477 13 14Z" fill="white"/>
<path d="M12 19C12.5523 19 13 18.5523 13 18C13 17.4477 12.5523 17 12 17C11.4477 17 11 17.4477 11 18C11 18.5523 11.4477 19 12 19Z" fill="white"/>
<path d="M17.5 14C17.5 14.5523 17.0523 15 16.5 15C15.9477 15 15.5 14.5523 15.5 14C15.5 13.4477 15.9477 13 16.5 13C17.0523 13 17.5 13.4477 17.5 14Z" fill="white"/>
<path d="M16.5 19C17.0523 19 17.5 18.5523 17.5 18C17.5 17.4477 17.0523 17 16.5 17C15.9477 17 15.5 17.4477 15.5 18C15.5 18.5523 15.9477 19 16.5 19Z" fill="white"/>
<path fill-rule="evenodd" clip-rule="evenodd" d="M2.5 4C2.5 2.34315 3.84315 1 5.5 1H18.5C20.1569 1 21.5 2.34315 21.5 4V20C21.5 21.6569 20.1569 23 18.5 23H5.5C3.84315 23 2.5 21.6569 2.5 20V4ZM5.5 3H18.5C19.0523 3 19.5 3.44772 19.5 4V20C19.5 20.5523 19.0523 21 18.5 21H5.5C4.94772 21 4.5 20.5523 4.5 20V4C4.5 3.44772 4.94772 3 5.5 3Z" fill="white"/>
</svg>
