<svg width="25" height="25" viewBox="0 0 25 25" fill="none" xmlns="http://www.w3.org/2000/svg">
<g clip-path="url(#clip0_2040_13195)">
<path fill-rule="evenodd" clip-rule="evenodd" d="M8.42933 3.65455H16.571C16.7509 3.65455 16.9235 3.72603 17.0507 3.85327C17.1779 3.9805 17.2494 4.15307 17.2494 4.33302V20.6163C17.2494 20.7962 17.1779 20.9688 17.0507 21.096C16.9235 21.2233 16.7509 21.2947 16.571 21.2947H8.42933C8.24939 21.2947 8.07682 21.2233 7.94958 21.096C7.82234 20.9688 7.75086 20.7962 7.75086 20.6163V4.33302C7.75086 4.15307 7.82234 3.9805 7.94958 3.85327C8.07682 3.72603 8.24939 3.65455 8.42933 3.65455ZM5.71545 4.33302C5.71545 3.61325 6.00138 2.92297 6.51033 2.41402C7.01928 1.90507 7.70956 1.61914 8.42933 1.61914L16.571 1.61914C17.2907 1.61914 17.981 1.90507 18.49 2.41402C18.9989 2.92297 19.2848 3.61325 19.2848 4.33302V20.6163C19.2848 21.336 18.9989 22.0263 18.49 22.5353C17.981 23.0442 17.2907 23.3301 16.571 23.3301H8.42933C7.70956 23.3301 7.01928 23.0442 6.51033 22.5353C6.00138 22.0263 5.71545 21.336 5.71545 20.6163V4.33302ZM12.5001 19.2593C12.86 19.2593 13.2052 19.1164 13.4596 18.8619C13.7141 18.6074 13.8571 18.2623 13.8571 17.9024C13.8571 17.5425 13.7141 17.1974 13.4596 16.9429C13.2052 16.6884 12.86 16.5455 12.5001 16.5455C12.1403 16.5455 11.7951 16.6884 11.5406 16.9429C11.2862 17.1974 11.1432 17.5425 11.1432 17.9024C11.1432 18.2623 11.2862 18.6074 11.5406 18.8619C11.7951 19.1164 12.1403 19.2593 12.5001 19.2593Z" fill="#6FBB40"/>
</g>
<defs>
<clipPath id="clip0_2040_13195">
<rect width="21.711" height="21.711" fill="white" transform="translate(1.64526 1.61914)"/>
</clipPath>
</defs>
</svg>
