<svg width="25" height="25" viewBox="0 0 25 25" fill="none" xmlns="http://www.w3.org/2000/svg">
<path d="M11.6102 5.48043C11.4602 5.07201 11.1596 4.73646 10.77 4.54263C10.3805 4.3488 9.9315 4.31137 9.51523 4.43802C7.54196 5.04643 6.16289 6.73984 6.45899 8.69892C6.79013 10.8733 7.52692 12.966 8.63101 14.8682C9.72329 16.766 11.1552 18.4468 12.8554 19.8267C14.3845 21.0639 16.5302 20.7231 18.0431 19.3035C18.3614 19.0048 18.5544 18.5965 18.5834 18.1611C18.6124 17.7256 18.4751 17.2953 18.1993 16.9571L17.1163 15.6328C16.8994 15.3665 16.6075 15.1715 16.2784 15.0731C15.9493 14.9748 15.5983 14.9776 15.2708 15.0811L12.7723 15.8721L12.3362 15.4219C11.7868 14.8521 11.3063 14.2197 10.9044 13.5378C10.5144 12.8482 10.2106 12.1133 9.99993 11.3496L9.83161 10.7513L11.7582 8.97676C12.0125 8.74071 12.1908 8.43442 12.2706 8.0968C12.3504 7.75917 12.3281 7.40545 12.2064 7.08055L11.6102 5.48043ZM8.91899 2.49922C9.82989 2.22052 10.8129 2.30074 11.6666 2.72342C12.5202 3.14611 13.1799 3.87926 13.5105 4.77265L14.1047 6.37074C14.3668 7.07283 14.4142 7.83703 14.2409 8.56614C14.0675 9.29525 13.6813 9.95634 13.1312 10.4653L12.1375 11.38C12.2652 11.7329 12.4376 12.1364 12.6607 12.5279C12.8838 12.9132 13.1434 13.264 13.3807 13.55L14.6583 13.1444C15.3726 12.9189 16.1382 12.9129 16.8559 13.1273C17.5736 13.3417 18.2104 13.7666 18.684 14.347L19.7669 15.6713C20.3688 16.4073 20.6688 17.3443 20.6063 18.293C20.5438 19.2417 20.1235 20.1313 19.4303 20.782C17.4144 22.6741 14.1229 23.459 11.5818 21.4025C9.68831 19.8664 8.09344 17.9952 6.87676 15.8822C5.64503 13.7606 4.82294 11.4264 4.45326 9.0011C3.96653 5.77044 6.28458 3.31044 8.91899 2.50125" fill="#6FBB40"/>
</svg>
