<svg width="25" height="25" viewBox="0 0 25 25" fill="none" xmlns="http://www.w3.org/2000/svg">
<path d="M21.8801 12.1367C21.6149 12.1367 21.3606 12.242 21.173 12.4296C20.9855 12.6171 20.8801 12.8714 20.8801 13.1367V19.1367C20.8801 19.4019 20.7748 19.6562 20.5872 19.8438C20.3997 20.0313 20.1453 20.1367 19.8801 20.1367H5.88013C5.61491 20.1367 5.36056 20.0313 5.17302 19.8438C4.98548 19.6562 4.88013 19.4019 4.88013 19.1367V5.13666C4.88013 4.87144 4.98548 4.61709 5.17302 4.42955C5.36056 4.24201 5.61491 4.13666 5.88013 4.13666H11.8801C12.1453 4.13666 12.3997 4.0313 12.5872 3.84376C12.7748 3.65623 12.8801 3.40187 12.8801 3.13666C12.8801 2.87144 12.7748 2.61709 12.5872 2.42955C12.3997 2.24201 12.1453 2.13666 11.8801 2.13666H5.88013C5.08448 2.13666 4.32142 2.45273 3.75881 3.01534C3.1962 3.57795 2.88013 4.34101 2.88013 5.13666V19.1367C2.88013 19.9323 3.1962 20.6954 3.75881 21.258C4.32142 21.8206 5.08448 22.1367 5.88013 22.1367H19.8801C20.6758 22.1367 21.4388 21.8206 22.0014 21.258C22.5641 20.6954 22.8801 19.9323 22.8801 19.1367V13.1367C22.8801 12.8714 22.7748 12.6171 22.5872 12.4296C22.3997 12.242 22.1453 12.1367 21.8801 12.1367ZM6.88013 12.8967V17.1367C6.88013 17.4019 6.98548 17.6562 7.17302 17.8438C7.36056 18.0313 7.61491 18.1367 7.88013 18.1367H12.1201C12.2517 18.1374 12.3822 18.1122 12.504 18.0624C12.6259 18.0127 12.7367 17.9393 12.8301 17.8467L19.7501 10.9167L22.5901 8.13666C22.6839 8.04369 22.7583 7.93309 22.809 7.81123C22.8598 7.68938 22.8859 7.55867 22.8859 7.42666C22.8859 7.29465 22.8598 7.16394 22.809 7.04208C22.7583 6.92022 22.6839 6.80962 22.5901 6.71666L18.3501 2.42666C18.2572 2.33293 18.1466 2.25853 18.0247 2.20777C17.9028 2.157 17.7721 2.13086 17.6401 2.13086C17.5081 2.13086 17.3774 2.157 17.2556 2.20777C17.1337 2.25853 17.0231 2.33293 16.9301 2.42666L14.1101 5.25666L7.17013 12.1867C7.07745 12.2801 7.00412 12.3909 6.95436 12.5128C6.90459 12.6346 6.87937 12.7651 6.88013 12.8967ZM17.6401 4.54666L20.4701 7.37666L19.0501 8.79666L16.2201 5.96666L17.6401 4.54666ZM8.88013 13.3067L14.8101 7.37666L17.6401 10.2067L11.7101 16.1367H8.88013V13.3067Z" fill="#929C91"/>
</svg>
