<svg width="25" height="25" viewBox="0 0 25 25" fill="none" xmlns="http://www.w3.org/2000/svg">
<path d="M22.4761 12.9617C22.476 13.1474 22.4242 13.3293 22.3265 13.4872C22.2289 13.6451 22.0892 13.7727 21.9231 13.8557L3.92307 22.8557C3.75415 22.94 3.56481 22.9747 3.37697 22.9559C3.18913 22.9371 3.01045 22.8655 2.8616 22.7494C2.71274 22.6333 2.5998 22.4774 2.53582 22.2998C2.47184 22.1222 2.45945 21.9301 2.50007 21.7457L4.45207 12.9617L2.50007 4.17871C2.45921 3.99427 2.47143 3.80204 2.5353 3.62426C2.59918 3.44648 2.71211 3.29044 2.861 3.17418C3.0099 3.05793 3.18868 2.98623 3.37664 2.96739C3.56461 2.94855 3.75406 2.98333 3.92307 3.06771L21.9231 12.0677C22.0892 12.1507 22.2289 12.2783 22.3265 12.4362C22.4242 12.5941 22.476 12.776 22.4761 12.9617ZM6.27807 13.9617L4.90807 20.1277L17.2401 13.9617L6.27807 13.9617ZM17.2401 11.9617L4.90807 5.79571L6.27807 11.9617L17.2401 11.9617Z" fill="white"/>
</svg>
