<svg width="33" height="33" viewBox="0 0 33 33" fill="none" xmlns="http://www.w3.org/2000/svg">
<g clip-path="url(#clip0_2040_13218)">
<path d="M16.6003 0.476562C7.75728 0.476562 0.580322 7.65352 0.580322 16.4966C0.580322 25.3396 7.75728 32.5166 16.6003 32.5166C25.4434 32.5166 32.6203 25.3396 32.6203 16.4966C32.6203 7.65352 25.4434 0.476562 16.6003 0.476562ZM24.0336 11.3702C23.7933 13.9013 22.752 20.053 22.2233 22.8885C21.9991 24.09 21.5505 24.4906 21.134 24.5386C20.2048 24.6187 19.4999 23.9298 18.6028 23.3371C17.1931 22.4079 16.3921 21.8312 15.0304 20.9341C13.4444 19.8928 14.4697 19.3161 15.3828 18.3869C15.6231 18.1466 19.7242 14.414 19.8043 14.0775C19.8155 14.0266 19.814 13.9737 19.8 13.9234C19.7861 13.8732 19.76 13.8271 19.7242 13.7892C19.6281 13.7091 19.4999 13.7411 19.3878 13.7571C19.2436 13.7892 17.0008 15.279 12.6274 18.2267C11.9866 18.6593 11.4098 18.8835 10.8972 18.8675C10.3205 18.8515 9.23112 18.5471 8.4141 18.2748C7.40484 17.9544 6.61986 17.7782 6.68394 17.2175C6.71598 16.9291 7.11648 16.6407 7.86942 16.3364C12.5473 14.3018 15.6551 12.9561 17.2091 12.3153C21.6626 10.457 22.5758 10.1366 23.1845 10.1366C23.3127 10.1366 23.6171 10.1687 23.8093 10.3289C23.9695 10.457 24.0176 10.6332 24.0336 10.7614C24.0176 10.8575 24.0496 11.1459 24.0336 11.3702Z" fill="#6FBB40"/>
</g>
<defs>
<clipPath id="clip0_2040_13218">
<rect width="32.04" height="32.04" fill="white" transform="translate(0.580078 0.476562)"/>
</clipPath>
</defs>
</svg>
