<svg width="33" height="33" viewBox="0 0 33 33" fill="none" xmlns="http://www.w3.org/2000/svg">
<g clip-path="url(#clip0_2040_13206)">
<path d="M32.5354 16.4921C32.5354 25.3373 25.365 32.5077 16.5198 32.5077C7.67469 32.5077 0.504272 25.3373 0.504272 16.4921C0.504272 7.64698 7.67469 0.476562 16.5198 0.476562C25.365 0.476562 32.5354 7.64698 32.5354 16.4921Z" fill="#6FBB40"/>
<path fill-rule="evenodd" clip-rule="evenodd" d="M16.5198 29.6814C23.8041 29.6814 29.7091 23.7764 29.7091 16.4921C29.7091 9.20789 23.8041 3.30284 16.5198 3.30284C9.2356 3.30284 3.33055 9.20789 3.33055 16.4921C3.33055 23.7764 9.2356 29.6814 16.5198 29.6814ZM16.5198 32.5077C25.365 32.5077 32.5354 25.3373 32.5354 16.4921C32.5354 7.64698 25.365 0.476562 16.5198 0.476562C7.67469 0.476562 0.504272 7.64698 0.504272 16.4921C0.504272 25.3373 7.67469 32.5077 16.5198 32.5077Z" fill="#6FBB40"/>
<path fill-rule="evenodd" clip-rule="evenodd" d="M23.7263 11.6513C24.3299 11.861 24.6492 12.5204 24.4395 13.124C23.7337 15.1552 22.5281 16.4763 21.211 17.2899C22.6732 18.1649 23.9356 19.5356 24.4623 21.4539C24.6315 22.07 24.2691 22.7067 23.6529 22.8759C23.0367 23.0451 22.4001 22.6827 22.2309 22.0665C21.6848 20.0778 19.8153 18.8574 18.0535 18.5099V21.3798C18.0535 22.2269 17.3259 22.9876 16.3813 22.8737C15.3403 22.7483 13.5587 22.3287 11.9322 20.8338C10.2915 19.326 8.94162 16.847 8.55088 12.8574C8.4886 12.2214 8.95365 11.6554 9.5896 11.5931C10.2255 11.5308 10.7916 11.9959 10.8539 12.6318C11.2018 16.184 12.3632 18.0871 13.498 19.13C14.2564 19.8271 15.0624 20.1946 15.7395 20.39V12.7446C15.7395 12.1056 16.2575 11.5876 16.8965 11.5876C17.5355 11.5876 18.0535 12.1056 18.0535 12.7446V16.0386C19.5481 15.8087 21.3908 14.8478 22.2537 12.3645C22.4634 11.7609 23.1227 11.4416 23.7263 11.6513Z" fill="white"/>
</g>
<defs>
<clipPath id="clip0_2040_13206">
<rect width="32.04" height="32.04" fill="white" transform="translate(0.5 0.476562)"/>
</clipPath>
</defs>
</svg>
