<svg width="33" height="33" viewBox="0 0 33 33" fill="none" xmlns="http://www.w3.org/2000/svg">
<g clip-path="url(#clip0_2040_13220)">
<path fill-rule="evenodd" clip-rule="evenodd" d="M16.64 32.5166C25.4875 32.5166 32.66 25.3441 32.66 16.4966C32.66 7.64904 25.4875 0.476562 16.64 0.476562C7.79247 0.476562 0.619995 7.64904 0.619995 16.4966C0.619995 25.3441 7.79247 32.5166 16.64 32.5166ZM16.2119 10.5724C16.2125 10.4953 16.2437 10.4216 16.2986 10.3674C16.3535 10.3133 16.4277 10.2832 16.5048 10.2837C17.9738 10.2939 19.2179 10.7835 20.2163 11.7566C21.2243 12.7392 21.7209 14.0763 21.7337 15.7308C21.7353 15.7698 21.729 15.8087 21.7152 15.8451C21.7014 15.8816 21.6804 15.915 21.6535 15.9432C21.6266 15.9714 21.5942 15.9939 21.5584 16.0094C21.5227 16.0248 21.4841 16.033 21.4451 16.0332C21.4061 16.0335 21.3675 16.026 21.3314 16.011C21.2954 15.996 21.2628 15.974 21.2355 15.9462C21.2081 15.9183 21.1867 15.8853 21.1724 15.849C21.1581 15.8127 21.1512 15.774 21.1522 15.735C21.1403 14.2003 20.6841 13.025 19.8104 12.1731C18.927 11.3119 17.8303 10.8745 16.5006 10.8652C16.4236 10.8645 16.3499 10.8333 16.2959 10.7784C16.2418 10.7235 16.2114 10.6494 16.2119 10.5724ZM16.9726 11.5118C16.8751 11.5046 16.7788 11.5365 16.7048 11.6004C16.6309 11.6643 16.5853 11.7549 16.5782 11.8524C16.571 11.9498 16.6029 12.0461 16.6668 12.1201C16.7306 12.1941 16.8213 12.2396 16.9188 12.2468C17.8537 12.315 18.5422 12.6261 19.0324 13.1612C19.5262 13.7008 19.7706 14.3736 19.7527 15.2082C19.7506 15.306 19.7873 15.4005 19.8549 15.4711C19.9225 15.5417 20.0154 15.5826 20.1131 15.5847C20.2109 15.5868 20.3054 15.5501 20.376 15.4825C20.4466 15.4149 20.4875 15.322 20.4896 15.2243C20.5111 14.2204 20.2109 13.3576 19.5761 12.6636C18.9321 11.961 18.0517 11.5906 16.9726 11.5118ZM17.343 12.9388C17.3039 12.9352 17.2646 12.9395 17.2272 12.9514C17.1899 12.9634 17.1553 12.9827 17.1257 13.0084C17.096 13.034 17.0718 13.0654 17.0546 13.1006C17.0374 13.1358 17.0274 13.1741 17.0254 13.2133C17.0233 13.2524 17.0292 13.2916 17.0427 13.3284C17.0561 13.3652 17.0769 13.3989 17.1037 13.4275C17.1305 13.4561 17.1628 13.479 17.1987 13.4948C17.2346 13.5106 17.2733 13.519 17.3125 13.5194C17.7403 13.5418 18.0248 13.6662 18.2096 13.8571C18.3955 14.0494 18.5185 14.3489 18.5406 14.7978C18.5466 14.8733 18.5817 14.9434 18.6385 14.9934C18.6954 15.0434 18.7695 15.0693 18.8451 15.0655C18.9207 15.0618 18.9918 15.0287 19.0434 14.9733C19.0951 14.918 19.1231 14.8446 19.1215 14.769C19.0949 14.2317 18.9427 13.7789 18.6274 13.4528C18.3112 13.1256 17.8687 12.9661 17.343 12.9388ZM17.9213 17.9477C17.731 18.1822 17.3772 18.1527 17.3772 18.1527C14.7929 17.4927 14.1015 14.875 14.1015 14.875C14.1015 14.875 14.0704 14.5213 14.3059 14.331L14.773 13.96C15.0044 13.7815 15.1521 13.3486 14.9166 12.9257C14.7357 12.6084 14.5391 12.3003 14.3274 12.0026C14.122 11.7216 13.6411 11.1449 13.6411 11.1449C13.4104 10.8726 13.0707 10.8091 12.7125 10.9956L12.7087 10.9966L12.7052 10.9975C12.3466 11.2044 12.0236 11.4675 11.7485 11.7768C11.5274 12.0436 11.4008 12.3054 11.3688 12.5617C11.3621 12.5995 11.3597 12.6378 11.3617 12.6761C11.3608 12.7895 11.3778 12.9023 11.413 13.01L11.4252 13.0183C11.5367 13.4143 11.8161 14.0743 12.4229 15.1749C12.77 15.8114 13.1703 16.4174 13.6196 16.9865C13.8448 17.2716 14.0861 17.544 14.3424 17.8012L14.3517 17.8109L14.37 17.8288L14.3972 17.8563L14.4248 17.8836L14.4523 17.9111C14.7099 18.1674 14.9819 18.4086 15.2671 18.6336C15.8362 19.0831 16.4423 19.4835 17.0789 19.8307C18.1789 20.4375 18.8395 20.7169 19.2352 20.8284L19.2436 20.8406C19.3512 20.8758 19.464 20.8931 19.5771 20.8918C19.6156 20.8937 19.654 20.8915 19.6918 20.8848C19.9488 20.8543 20.2102 20.7278 20.4762 20.5054L20.4784 20.5041L20.4832 20.5003C20.7895 20.2261 21.0501 19.9049 21.2554 19.5487L21.2563 19.5455L21.257 19.5413C21.4438 19.1834 21.3803 18.8438 21.1064 18.6125L21.0458 18.5632C20.8908 18.435 20.4746 18.0922 20.249 17.9262C19.9515 17.7146 19.6437 17.5181 19.3266 17.3373C18.9036 17.1015 18.4714 17.2492 18.2923 17.4808L17.9213 17.9477Z" fill="#6FBB40"/>
<path fill-rule="evenodd" clip-rule="evenodd" d="M22.9025 9.71049C22.4847 9.33114 20.6815 8.19821 16.9194 8.18154C16.9194 8.18154 12.4642 7.88902 10.3015 9.84763C9.09778 11.0363 8.69248 12.8036 8.64794 14.9603L8.64281 15.1816C8.59283 17.3876 8.50408 21.2734 12.3178 22.333C12.4316 23.3142 12.5099 23.9905 12.603 24.7933C12.6541 25.2337 13.1757 25.4058 13.4672 25.0717C14.2949 24.1231 15.3795 22.8145 15.3795 22.8145C18.0892 22.9917 20.2451 22.4567 20.4771 22.3807C20.5286 22.3644 20.6016 22.3471 20.692 22.3258L20.7078 22.3221C21.5895 22.1167 24.0303 21.5477 24.4808 17.9092C24.9976 13.7431 24.2905 10.8989 22.9025 9.71049ZM16.2986 10.3674C16.2437 10.4216 16.2125 10.4953 16.2119 10.5724C16.2114 10.6494 16.2418 10.7235 16.2959 10.7784C16.3499 10.8333 16.4236 10.8645 16.5006 10.8652C17.8303 10.8745 18.927 11.3119 19.8104 12.1731C20.6841 13.025 21.1403 14.2003 21.1522 15.735C21.1512 15.774 21.1581 15.8127 21.1724 15.849C21.1867 15.8853 21.2081 15.9183 21.2355 15.9462C21.2628 15.974 21.2954 15.996 21.3314 16.011C21.3675 16.026 21.4061 16.0335 21.4451 16.0332C21.4841 16.033 21.5227 16.0248 21.5584 16.0094C21.5942 15.9939 21.6266 15.9714 21.6535 15.9432C21.6804 15.915 21.7014 15.8816 21.7152 15.8451C21.729 15.8087 21.7353 15.7698 21.7337 15.7308C21.7209 14.0763 21.2243 12.7392 20.2163 11.7566C19.2179 10.7835 17.9738 10.2939 16.5048 10.2837C16.4277 10.2832 16.3535 10.3133 16.2986 10.3674ZM16.7048 11.6004C16.7788 11.5365 16.8751 11.5046 16.9726 11.5118C18.0517 11.5906 18.9321 11.961 19.5761 12.6636C20.2109 13.3576 20.5111 14.2204 20.4896 15.2243C20.4875 15.322 20.4466 15.4149 20.376 15.4825C20.3054 15.5501 20.2109 15.5868 20.1131 15.5847C20.0154 15.5826 19.9225 15.5417 19.8549 15.4711C19.7873 15.4005 19.7506 15.306 19.7527 15.2082C19.7706 14.3736 19.5262 13.7008 19.0324 13.1612C18.5422 12.6261 17.8537 12.315 16.9188 12.2468C16.8213 12.2396 16.7306 12.1941 16.6668 12.1201C16.6029 12.0461 16.571 11.9498 16.5782 11.8524C16.5853 11.7549 16.6309 11.6643 16.7048 11.6004ZM17.2272 12.9514C17.2646 12.9395 17.3039 12.9352 17.343 12.9388C17.8687 12.9661 18.3112 13.1256 18.6274 13.4528C18.9427 13.7789 19.0949 14.2317 19.1215 14.769C19.1231 14.8446 19.0951 14.918 19.0434 14.9733C18.9918 15.0287 18.9207 15.0618 18.8451 15.0655C18.7695 15.0693 18.6954 15.0434 18.6385 14.9934C18.5817 14.9434 18.5466 14.8733 18.5406 14.7978C18.5185 14.3489 18.3955 14.0494 18.2096 13.8571C18.0248 13.6662 17.7403 13.5418 17.3125 13.5194C17.2733 13.519 17.2346 13.5106 17.1987 13.4948C17.1628 13.479 17.1305 13.4561 17.1037 13.4275C17.0769 13.3989 17.0561 13.3652 17.0427 13.3284C17.0292 13.2916 17.0233 13.2524 17.0254 13.2133C17.0274 13.1741 17.0374 13.1358 17.0546 13.1006C17.0718 13.0654 17.096 13.034 17.1257 13.0084C17.1553 12.9827 17.1899 12.9634 17.2272 12.9514ZM17.3772 18.1527C17.3772 18.1527 17.731 18.1822 17.9213 17.9477L18.2923 17.4808C18.4714 17.2492 18.9036 17.1015 19.3266 17.3373C19.6437 17.5181 19.9515 17.7146 20.249 17.9262C20.4746 18.0922 20.8908 18.435 21.0458 18.5632L21.1064 18.6125C21.3803 18.8438 21.4438 19.1834 21.257 19.5413L21.2563 19.5455L21.2554 19.5487C21.0501 19.9049 20.7895 20.2261 20.4832 20.5003L20.4784 20.5041L20.4762 20.5054C20.2102 20.7278 19.9488 20.8543 19.6918 20.8848C19.654 20.8915 19.6156 20.8937 19.5771 20.8918C19.464 20.8931 19.3512 20.8758 19.2436 20.8406L19.2352 20.8284C18.8395 20.7169 18.1789 20.4375 17.0789 19.8307C16.4423 19.4835 15.8362 19.0831 15.2671 18.6336C14.9819 18.4086 14.7099 18.1674 14.4523 17.9111L14.4248 17.8836L14.3972 17.8563L14.37 17.8288L14.3517 17.8109L14.3424 17.8012C14.0861 17.544 13.8448 17.2716 13.6196 16.9865C13.1703 16.4174 12.77 15.8114 12.4229 15.1749C11.8161 14.0743 11.5367 13.4143 11.4252 13.0183L11.413 13.01C11.3778 12.9023 11.3608 12.7895 11.3617 12.6761C11.3597 12.6378 11.3621 12.5995 11.3688 12.5617C11.4008 12.3054 11.5274 12.0436 11.7485 11.7768C12.0236 11.4675 12.3466 11.2044 12.7052 10.9975L12.7087 10.9966L12.7125 10.9956C13.0707 10.8091 13.4104 10.8726 13.6411 11.1449C13.6411 11.1449 14.122 11.7216 14.3274 12.0026C14.5391 12.3003 14.7357 12.6084 14.9166 12.9257C15.1521 13.3486 15.0044 13.7815 14.773 13.96L14.3059 14.331C14.0704 14.5213 14.1015 14.875 14.1015 14.875C14.1015 14.875 14.7929 17.4927 17.3772 18.1527Z" fill="white"/>
<path d="M17.9213 17.9477C17.731 18.1822 17.3772 18.1527 17.3772 18.1527C14.7929 17.4927 14.1015 14.875 14.1015 14.875C14.1015 14.875 14.0704 14.5213 14.3059 14.331L14.773 13.96C15.0044 13.7815 15.1521 13.3486 14.9166 12.9257C14.7357 12.6084 14.5391 12.3003 14.3274 12.0026C14.122 11.7216 13.6411 11.1449 13.6411 11.1449C13.4104 10.8726 13.0707 10.8091 12.7125 10.9956L12.7087 10.9966L12.7052 10.9975C12.3466 11.2044 12.0236 11.4675 11.7485 11.7768C11.5274 12.0436 11.4008 12.3054 11.3688 12.5617C11.3621 12.5995 11.3597 12.6378 11.3617 12.6761C11.3608 12.7895 11.3778 12.9023 11.413 13.01L11.4252 13.0183C11.5367 13.4143 11.8161 14.0743 12.4229 15.1749C12.77 15.8114 13.1703 16.4174 13.6196 16.9865C13.8448 17.2716 14.0861 17.544 14.3424 17.8012L14.3517 17.8109L14.37 17.8288L14.3972 17.8563L14.4248 17.8836L14.4523 17.9111C14.7099 18.1674 14.9819 18.4086 15.2671 18.6336C15.8362 19.0831 16.4423 19.4835 17.0789 19.8307C18.1789 20.4375 18.8395 20.7169 19.2352 20.8284L19.2436 20.8406C19.3512 20.8758 19.464 20.8931 19.5771 20.8918C19.6156 20.8937 19.654 20.8915 19.6918 20.8848C19.9488 20.8543 20.2102 20.7278 20.4762 20.5054L20.4784 20.5041L20.4832 20.5003C20.7895 20.2261 21.0501 19.9049 21.2554 19.5487L21.2563 19.5455L21.257 19.5413C21.4438 19.1834 21.3803 18.8438 21.1064 18.6125L21.0458 18.5632C20.8908 18.435 20.4746 18.0922 20.249 17.9262C19.9515 17.7146 19.6437 17.5181 19.3266 17.3373C18.9036 17.1015 18.4714 17.2492 18.2923 17.4808L17.9213 17.9477Z" fill="#6FBB40"/>
<path d="M16.9726 11.5118C16.8751 11.5046 16.7788 11.5365 16.7048 11.6004C16.6309 11.6643 16.5853 11.7549 16.5782 11.8524C16.571 11.9498 16.6029 12.0461 16.6668 12.1201C16.7306 12.1941 16.8213 12.2396 16.9188 12.2468C17.8537 12.315 18.5422 12.6261 19.0324 13.1612C19.5262 13.7008 19.7706 14.3736 19.7527 15.2082C19.7506 15.306 19.7873 15.4005 19.8549 15.4711C19.9225 15.5417 20.0154 15.5826 20.1131 15.5847C20.2109 15.5868 20.3054 15.5501 20.376 15.4825C20.4466 15.4149 20.4875 15.322 20.4896 15.2243C20.5111 14.2204 20.2109 13.3576 19.5761 12.6636C18.9321 11.961 18.0517 11.5906 16.9726 11.5118Z" fill="#6FBB40"/>
<path d="M16.2119 10.5724C16.2125 10.4953 16.2437 10.4216 16.2986 10.3674C16.3535 10.3133 16.4277 10.2832 16.5048 10.2837C17.9738 10.2939 19.2179 10.7835 20.2163 11.7566C21.2243 12.7392 21.7209 14.0763 21.7337 15.7308C21.7353 15.7698 21.729 15.8087 21.7152 15.8451C21.7014 15.8816 21.6804 15.915 21.6535 15.9432C21.6266 15.9714 21.5942 15.9939 21.5584 16.0094C21.5227 16.0248 21.4841 16.033 21.4451 16.0332C21.4061 16.0335 21.3675 16.026 21.3314 16.011C21.2954 15.996 21.2628 15.974 21.2355 15.9462C21.2081 15.9183 21.1867 15.8853 21.1724 15.849C21.1581 15.8127 21.1512 15.774 21.1522 15.735C21.1403 14.2003 20.6841 13.025 19.8104 12.1731C18.927 11.3119 17.8303 10.8745 16.5006 10.8652C16.4236 10.8645 16.3499 10.8333 16.2959 10.7784C16.2418 10.7235 16.2114 10.6494 16.2119 10.5724Z" fill="#6FBB40"/>
<path d="M17.343 12.9388C17.3039 12.9352 17.2646 12.9395 17.2272 12.9514C17.1899 12.9634 17.1553 12.9827 17.1257 13.0084C17.096 13.034 17.0718 13.0654 17.0546 13.1006C17.0374 13.1358 17.0274 13.1741 17.0254 13.2133C17.0233 13.2524 17.0292 13.2916 17.0427 13.3284C17.0561 13.3652 17.0769 13.3989 17.1037 13.4275C17.1305 13.4561 17.1628 13.479 17.1987 13.4948C17.2346 13.5106 17.2733 13.519 17.3125 13.5194C17.7403 13.5418 18.0248 13.6662 18.2096 13.8571C18.3955 14.0494 18.5185 14.3489 18.5406 14.7978C18.5466 14.8733 18.5817 14.9434 18.6385 14.9934C18.6954 15.0434 18.7695 15.0693 18.8451 15.0655C18.9207 15.0618 18.9918 15.0287 19.0434 14.9733C19.0951 14.918 19.1231 14.8446 19.1215 14.769C19.0949 14.2317 18.9427 13.7789 18.6274 13.4528C18.3112 13.1256 17.8687 12.9661 17.343 12.9388Z" fill="#6FBB40"/>
</g>
<defs>
<clipPath id="clip0_2040_13220">
<rect width="32.04" height="32.04" fill="white" transform="translate(0.619995 0.476562)"/>
</clipPath>
</defs>
</svg>
