<svg width="91" height="91" viewBox="0 0 91 91" fill="none" xmlns="http://www.w3.org/2000/svg">
<path fill-rule="evenodd" clip-rule="evenodd" d="M27.4798 17.357L16.0106 25.4473H9.06055C7.95598 25.4473 7.06055 26.3427 7.06055 27.4473V35.3653C7.06055 36.4698 7.95598 37.3653 9.06055 37.3653H13.6475V44.2058C13.6475 45.3103 14.5429 46.2058 15.6475 46.2058H30.1278C31.2324 46.2058 32.1278 45.3103 32.1278 44.2058V37.3653H59.1831V44.1295C59.1831 45.2341 60.0785 46.1295 61.1831 46.1295H75.6634C76.768 46.1295 77.6634 45.2341 77.6634 44.1295V37.3653H81.6306C82.7352 37.3653 83.6306 36.4698 83.6306 35.3653V27.4473C83.6306 26.3427 82.7352 25.4473 81.6306 25.4473H74.8576L62.2056 17.3096L62.198 17.3047L46.3438 7.10748C44.9736 6.22613 43.2057 6.26394 41.8744 7.20306L27.4861 17.3525L27.4798 17.357ZM45.3135 11.2007L45.3063 11.1961C44.6243 10.7615 43.7475 10.7805 43.0848 11.2442L43.0788 11.2485L22.95 25.4473H67.4633L45.3135 11.2007ZM63.1831 37.3653H73.6634V42.1295H63.1831V37.3653ZM76.4921 33.3653H79.6306V29.7515H11.0605V33.3653H15.097C15.2719 33.3153 15.4566 33.2886 15.6475 33.2886H30.1278C30.3187 33.2886 30.5033 33.3153 30.6782 33.3653H60.3544C60.6069 33.2502 60.8875 33.186 61.1831 33.186H75.6634C75.959 33.186 76.2397 33.2502 76.4921 33.3653ZM17.6475 42.2058V37.3653H28.1278V42.2058H25.6647C25.5565 42.1891 25.4372 42.1802 25.3062 42.1802H20.4688C20.3377 42.1802 20.2184 42.1891 20.1103 42.2058H17.6475Z" fill="#6FBB40"/>
<path fill-rule="evenodd" clip-rule="evenodd" d="M36.9717 46.9937C36.9717 45.8891 37.8671 44.9937 38.9717 44.9937H48.6686C51.8822 44.9937 54.4873 47.5988 54.4873 50.8124C54.4873 54.026 51.8822 56.6311 48.6686 56.6311H43.7605V58.8523H46.3947C47.4992 58.8523 48.3947 59.7477 48.3947 60.8523C48.3947 61.9568 47.4992 62.8523 46.3947 62.8523H43.7605V65.1C43.7605 66.2046 42.8651 67.1 41.7605 67.1C40.656 67.1 39.7605 66.2046 39.7605 65.1V62.8523H38.9718C37.8672 62.8523 36.9718 61.9568 36.9718 60.8523C36.9718 59.7477 37.8672 58.8523 38.9718 58.8523H39.7605V48.9937H38.9717C37.8671 48.9937 36.9717 48.0982 36.9717 46.9937ZM50.4873 50.8124C50.4873 51.8168 49.6731 52.6311 48.6686 52.6311H43.7605V48.9937H48.6686C49.6731 48.9937 50.4873 49.8079 50.4873 50.8124Z" fill="#6FBB40"/>
<path fill-rule="evenodd" clip-rule="evenodd" d="M7.06055 74.5342C7.06055 73.4296 7.95598 72.5342 9.06055 72.5342H13.6473V65.5608C13.6473 64.4562 14.5427 63.5608 15.6473 63.5608H30.1276C31.2322 63.5608 32.1276 64.4562 32.1276 65.5608V72.5342H59.1831V66.6528C59.1831 65.5483 60.0785 64.6528 61.1831 64.6528H75.6634C76.768 64.6528 77.6634 65.5483 77.6634 66.6528V72.5342H81.6306C82.7352 72.5342 83.6306 73.4296 83.6306 74.5342V82.4522C83.6306 83.5567 82.7352 84.4522 81.6306 84.4522H9.06055C7.95598 84.4522 7.06055 83.5567 7.06055 82.4522V74.5342ZM11.0605 80.4522V76.5342H79.6306V80.4522H11.0605ZM17.6473 72.4779V67.5608H28.1276V72.4779H17.6473ZM63.1831 68.6528V72.4635H73.6634V68.6528H63.1831Z" fill="#6FBB40"/>
<path d="M18.4688 65.5608C19.5733 65.5608 20.4688 64.6653 20.4688 63.5608V50.8794C20.4688 49.7748 19.5733 48.8794 18.4688 48.8794C17.3642 48.8794 16.4688 49.7748 16.4688 50.8794V63.5608C16.4688 64.6653 17.3642 65.5608 18.4688 65.5608Z" fill="#6FBB40"/>
<path d="M25.3062 63.5608C25.3062 64.6653 26.2016 65.5608 27.3062 65.5608C28.4107 65.5608 29.3062 64.6653 29.3062 63.5608V50.8794C29.3062 49.7748 28.4107 48.8794 27.3062 48.8794C26.2016 48.8794 25.3062 49.7748 25.3062 50.8794V63.5608Z" fill="#6FBB40"/>
<path d="M66.4688 64.8699C66.4688 65.9745 65.5733 66.8699 64.4688 66.8699C63.3642 66.8699 62.4688 65.9745 62.4688 64.8699V50.8794C62.4688 49.7748 63.3642 48.8794 64.4688 48.8794C65.5733 48.8794 66.4688 49.7748 66.4688 50.8794V64.8699Z" fill="#6FBB40"/>
<path d="M73.3062 66.8699C72.2016 66.8699 71.3062 65.9745 71.3062 64.8699V50.8794C71.3062 49.7748 72.2016 48.8794 73.3062 48.8794C74.4107 48.8794 75.3062 49.7748 75.3062 50.8794V64.8699C75.3062 65.9745 74.4107 66.8699 73.3062 66.8699Z" fill="#6FBB40"/>
</svg>
