<svg width="91" height="91" viewBox="0 0 91 91" fill="none" xmlns="http://www.w3.org/2000/svg">
<path fill-rule="evenodd" clip-rule="evenodd" d="M41.8221 35.3135C42.3449 34.3405 43.5576 33.9757 44.5305 34.4986L53.0721 39.089C55.9028 40.6103 56.9643 44.1383 55.443 46.969C53.9217 49.7997 50.3937 50.8612 47.563 49.3399L43.2397 47.0164L42.1882 48.973L44.5085 50.22C45.4815 50.7428 45.8463 51.9555 45.3234 52.9284C44.8005 53.9014 43.5879 54.2663 42.6149 53.7434L40.2946 52.4964L39.2305 54.4763C38.7076 55.4493 37.495 55.8141 36.5221 55.2912C35.5491 54.7683 35.1842 53.5557 35.7071 52.5827L36.7712 50.6028L36.0765 50.2294C35.1035 49.7065 34.7387 48.4939 35.2616 47.5209C35.7845 46.548 36.9971 46.1831 37.9701 46.706L38.6648 47.0794L43.3318 38.3954L42.637 38.022C41.664 37.4991 41.2992 36.2864 41.8221 35.3135ZM49.4566 45.8165L45.1333 43.493L46.8552 40.289L51.1785 42.6124C52.0633 43.0879 52.3951 44.1907 51.9196 45.0754C51.4441 45.9602 50.3413 46.292 49.4566 45.8165Z" fill="#6FBB40"/>
<path fill-rule="evenodd" clip-rule="evenodd" d="M18.1845 14.6337C19.2201 12.8399 21.5139 12.2252 23.3077 13.2609L85.8328 49.3598C87.6266 50.3955 88.2412 52.6892 87.2056 54.483L72.2654 80.3602C71.2297 82.154 68.936 82.7686 67.1422 81.7329L4.61706 45.634C2.82325 44.5984 2.20865 42.3046 3.2443 40.5108L18.1845 14.6337ZM6.83318 42.2947L21.5238 16.8498L76.6301 48.6654L61.5587 73.8905L14.0123 46.4396L25.7058 26.031C26.2549 25.0726 25.9231 23.8505 24.9647 23.3014C24.0064 22.7522 22.7843 23.084 22.2351 24.0424L10.5482 44.4395L6.83318 42.2947ZM65.0232 75.8907L68.9261 78.144L83.6167 52.6991L80.0946 50.6657L65.0232 75.8907Z" fill="#6FBB40"/>
<path d="M31.4806 64.5708C31.0474 64.3206 30.5362 64.242 30.0478 64.3502L22.9626 65.9206L21.7093 60.2442C21.4711 59.1656 20.4037 58.4843 19.3251 58.7225C18.2465 58.9606 17.5652 60.028 17.8033 61.1066L19.0574 66.7861L15.9158 67.4824C14.9646 67.6932 14.0244 67.0869 13.824 66.1334L11.4256 54.7202C11.1984 53.6392 10.138 52.9471 9.05705 53.1742C7.97609 53.4014 7.28394 54.4618 7.5111 55.5428L9.9095 66.956C10.5677 70.0882 13.6566 72.0802 16.7814 71.3877L30.9134 68.2554C32.6944 67.8607 33.0605 65.4829 31.4806 64.5708Z" fill="#6FBB40"/>
<path d="M80.925 43.1C81.2358 43.2794 81.6036 43.3328 81.9525 43.2491L82.5346 43.1095C83.6087 42.8519 84.2706 41.7723 84.013 40.6982L80.2338 24.941C79.5135 21.9379 76.5498 20.04 73.5208 20.6421L55.3055 24.2627C53.4952 24.6225 53.097 27.0335 54.6955 27.9564C55.1156 28.1989 55.6096 28.2805 56.0854 28.1859L67.9184 25.8339L70.1664 34.4408C70.4455 35.5096 71.5382 36.1496 72.6069 35.8705C73.6756 35.5914 74.3157 34.4987 74.0365 33.43L71.8485 25.0527L74.3006 24.5653C75.2227 24.382 76.1248 24.9598 76.3441 25.8739L80.2629 42.2132C80.3526 42.5871 80.592 42.9077 80.925 43.1Z" fill="#6FBB40"/>
</svg>
