<svg width="91" height="91" viewBox="0 0 91 91" fill="none" xmlns="http://www.w3.org/2000/svg">
<path d="M78.0901 32.5528C78.0861 33.5875 77.2163 34.3832 76.1815 34.3832H75.9279C74.8935 34.3832 74.0903 33.4912 74.0903 32.4568C74.0903 21.429 65.1505 12.4893 54.1228 12.4893C52.9903 12.4893 52.0078 11.6136 52.0078 10.4811V10.3979C52.0078 9.36999 52.7939 8.50376 53.8218 8.49111C53.922 8.48988 54.0223 8.48926 54.1228 8.48926C67.3597 8.48926 78.0903 19.2199 78.0903 32.4568L78.0901 32.5528Z" fill="#6FBB40"/>
<path d="M17.6787 14.9478C14.365 14.9478 11.6787 17.634 11.6787 20.9478V76.229C11.6787 79.5427 14.365 82.229 17.6787 82.229H41.8818C45.1955 82.229 47.8818 79.5427 47.8818 76.229V75.1284C47.8818 74.0238 46.9864 73.1284 45.8818 73.1284C44.7773 73.1284 43.8818 74.0238 43.8818 75.1284V76.229C43.8818 77.3336 42.9864 78.229 41.8818 78.229H17.6787C16.5741 78.229 15.6787 77.3336 15.6787 76.229V20.9478C15.6787 19.8432 16.5741 18.9478 17.6787 18.9478H41.8818C42.9864 18.9478 43.8818 19.8432 43.8818 20.9478V33.7588C43.8818 34.8634 44.7773 35.7588 45.8818 35.7588C46.9864 35.7588 47.8818 34.8634 47.8818 33.7588V20.9478C47.8818 17.634 45.1955 14.9478 41.8818 14.9478H17.6787Z" fill="#6FBB40"/>
<path d="M23.395 25.2827C23.395 24.1781 24.2905 23.2827 25.395 23.2827L34.166 23.2827C35.2706 23.2827 36.166 24.1781 36.166 25.2827C36.166 26.3873 35.2706 27.2827 34.166 27.2827H25.395C24.2905 27.2827 23.395 26.3873 23.395 25.2827Z" fill="#6FBB40"/>
<path d="M43.0479 53.9624C41.9433 53.9624 41.0479 54.8579 41.0479 55.9624C41.0479 57.067 41.9433 57.9624 43.0479 57.9624H50.0078C51.1124 57.9624 52.0078 57.067 52.0078 55.9624C52.0078 54.8579 51.1124 53.9624 50.0078 53.9624H43.0479Z" fill="#6FBB40"/>
<path d="M53.7588 55.9624C53.7588 54.8579 54.6542 53.9624 55.7588 53.9624H57.0996C58.2042 53.9624 59.0996 54.8579 59.0996 55.9624C59.0996 57.067 58.2042 57.9624 57.0996 57.9624H55.7588C54.6542 57.9624 53.7588 57.067 53.7588 55.9624Z" fill="#6FBB40"/>
<path fill-rule="evenodd" clip-rule="evenodd" d="M33.25 42.9302C33.25 40.7211 35.0409 38.9302 37.25 38.9302H74.8105C77.0197 38.9302 78.8105 40.7211 78.8105 42.9302V66.3482C78.8105 68.5573 77.0197 70.3482 74.8105 70.3482H37.25C35.0409 70.3482 33.25 68.5573 33.25 66.3482V42.9302ZM37.25 42.9302H74.8105V47.0874H37.25V42.9302ZM37.25 51.0874H74.8105V66.3482H37.25V51.0874Z" fill="#6FBB40"/>
<path d="M68.946 34.383C69.9435 34.383 70.7949 33.6342 70.8054 32.6368C70.8061 32.5769 70.8064 32.5169 70.8064 32.4569C70.8064 23.243 63.3371 15.7737 54.1232 15.7737C53.9917 15.7737 53.8606 15.7752 53.7298 15.7782C52.743 15.8011 52.0082 16.6465 52.0082 17.6336V17.8246C52.0082 18.9363 53.0114 19.7737 54.1232 19.7737C61.1279 19.7737 66.8064 25.4522 66.8064 32.4569C66.8064 33.474 67.5774 34.383 68.5945 34.383H68.946Z" fill="#6FBB40"/>
<path d="M63.5116 32.9051C63.4708 33.773 62.7017 34.3833 61.8328 34.3833H61.138C60.1876 34.3833 59.5221 33.407 59.5221 32.4566C59.5221 29.4748 57.1049 27.0576 54.1232 27.0576C53.0935 27.0576 52.0082 26.3444 52.0082 25.3147V24.7414C52.0082 23.8958 52.5923 23.1434 53.4357 23.0824C53.6627 23.066 53.892 23.0576 54.1232 23.0576C59.314 23.0576 63.5221 27.2657 63.5221 32.4566C63.5221 32.6069 63.5185 32.7564 63.5116 32.9051Z" fill="#6FBB40"/>
</svg>
