<svg width="91" height="91" viewBox="0 0 91 91" fill="none" xmlns="http://www.w3.org/2000/svg">
<path fill-rule="evenodd" clip-rule="evenodd" d="M13.961 18.066L17.8646 39.6943H14.3135C10.9998 39.6943 8.31348 42.3806 8.31348 45.6943V77.7112C8.31348 81.0249 10.9998 83.7112 14.3135 83.7112H70.7892C74.1029 83.7112 76.7892 81.0249 76.7892 77.7112V75.581C76.7892 74.4764 75.8937 73.581 74.7892 73.581C73.6846 73.581 72.7892 74.4764 72.7892 75.581V77.7112C72.7892 78.8158 71.8937 79.7112 70.7892 79.7112H14.3135C13.2089 79.7112 12.3135 78.8158 12.3135 77.7112V45.6943C12.3135 44.5897 13.2089 43.6943 14.3135 43.6943H70.7892C71.8937 43.6943 72.7892 44.5897 72.7892 45.6943V46.1684C72.7892 47.273 73.6846 48.1684 74.7892 48.1684C75.8937 48.1684 76.7892 47.273 76.7892 46.1684V45.6943C76.7892 42.3806 74.1029 39.6943 70.7892 39.6943H69.347L73.8085 25.808C74.4863 23.6982 73.3197 21.4394 71.2069 20.7708L46.5347 12.9639L46.4136 12.0847C46.1006 9.81349 43.9465 8.2696 41.6952 8.70281L17.1415 13.4276C14.9899 13.8416 13.5718 15.9097 13.961 18.066ZM17.8974 17.3555L21.9292 39.6943H28.2139L23.8686 16.2065L17.8974 17.3555ZM70.0002 24.5845L65.1456 39.6943H47.0063L53.6064 19.397L70.0002 24.5845ZM49.7926 18.1902L42.8002 39.6943H36.4755L43.7782 16.2871L49.7926 18.1902ZM39.9597 15.0958L32.2853 39.6943H32.2818L27.7966 15.4506L41.9567 12.7259C41.0334 13.1982 40.2931 14.0271 39.9597 15.0958Z" fill="#6FBB40"/>
<path d="M59.6948 63.3696C61.1443 63.3696 62.3193 62.1945 62.3193 60.7451C62.3193 59.2956 61.1443 58.1205 59.6948 58.1205C58.2453 58.1205 57.0703 59.2956 57.0703 60.7451C57.0703 62.1945 58.2453 63.3696 59.6948 63.3696Z" fill="#6FBB40"/>
<path fill-rule="evenodd" clip-rule="evenodd" d="M49.7434 58.345C49.7434 54.479 52.8774 51.345 56.7434 51.345H75.9943C78.7557 51.345 80.9943 53.5836 80.9943 56.345V65.1453C80.9943 67.9067 78.7557 70.1453 75.9943 70.1453H56.7434C52.8774 70.1453 49.7434 67.0113 49.7434 63.1453V58.345ZM56.7434 55.345H75.9943C76.5466 55.345 76.9943 55.7927 76.9943 56.345V65.1453C76.9943 65.6976 76.5466 66.1453 75.9943 66.1453H56.7434C55.0865 66.1453 53.7434 64.8022 53.7434 63.1453V58.345C53.7434 56.6882 55.0865 55.345 56.7434 55.345Z" fill="#6FBB40"/>
<rect x="9.9834" y="69.8037" width="14.7666" height="4" rx="2" fill="#6FBB40"/>
</svg>
